%TF.GenerationSoftware,KiCad,Pcbnew,10.0.0*%
%TF.CreationDate,2026-04-16T14:40:55-04:00*%
%TF.ProjectId,17pinPCB,31377069-6e50-4434-922e-6b696361645f,rev?*%
%TF.SameCoordinates,Original*%
%TF.FileFunction,Copper,L1,Top*%
%TF.FilePolarity,Positive*%
%FSLAX46Y46*%
G04 Gerber Fmt 4.6, Leading zero omitted, Abs format (unit mm)*
G04 Created by KiCad (PCBNEW 10.0.0) date 2026-04-16 14:40:55*
%MOMM*%
%LPD*%
G01*
G04 APERTURE LIST*
G04 Aperture macros list*
%AMRoundRect*
0 Rectangle with rounded corners*
0 $1 Rounding radius*
0 $2 $3 $4 $5 $6 $7 $8 $9 X,Y pos of 4 corners*
0 Add a 4 corners polygon primitive as box body*
4,1,4,$2,$3,$4,$5,$6,$7,$8,$9,$2,$3,0*
0 Add four circle primitives for the rounded corners*
1,1,$1+$1,$2,$3*
1,1,$1+$1,$4,$5*
1,1,$1+$1,$6,$7*
1,1,$1+$1,$8,$9*
0 Add four rect primitives between the rounded corners*
20,1,$1+$1,$2,$3,$4,$5,0*
20,1,$1+$1,$4,$5,$6,$7,0*
20,1,$1+$1,$6,$7,$8,$9,0*
20,1,$1+$1,$8,$9,$2,$3,0*%
G04 Aperture macros list end*
%ADD10C,0.300000*%
%TA.AperFunction,NonConductor*%
%ADD11C,0.300000*%
%TD*%
%TA.AperFunction,ComponentPad*%
%ADD12C,2.000000*%
%TD*%
%TA.AperFunction,ComponentPad*%
%ADD13C,1.600000*%
%TD*%
%TA.AperFunction,ComponentPad*%
%ADD14RoundRect,0.250000X-0.550000X0.550000X-0.550000X-0.550000X0.550000X-0.550000X0.550000X0.550000X0*%
%TD*%
%TA.AperFunction,ComponentPad*%
%ADD15C,1.800000*%
%TD*%
%TA.AperFunction,ComponentPad*%
%ADD16R,1.800000X1.800000*%
%TD*%
%TA.AperFunction,ComponentPad*%
%ADD17RoundRect,0.250000X0.550000X0.550000X-0.550000X0.550000X-0.550000X-0.550000X0.550000X-0.550000X0*%
%TD*%
%TA.AperFunction,ComponentPad*%
%ADD18R,1.700000X1.700000*%
%TD*%
%TA.AperFunction,ComponentPad*%
%ADD19C,1.700000*%
%TD*%
%TA.AperFunction,ComponentPad*%
%ADD20R,1.050000X1.500000*%
%TD*%
%TA.AperFunction,ComponentPad*%
%ADD21O,1.050000X1.500000*%
%TD*%
%TA.AperFunction,ComponentPad*%
%ADD22O,3.048000X1.524000*%
%TD*%
%TA.AperFunction,ComponentPad*%
%ADD23R,2.000000X2.000000*%
%TD*%
%TA.AperFunction,ViaPad*%
%ADD24C,0.600000*%
%TD*%
%TA.AperFunction,ViaPad*%
%ADD25C,0.700000*%
%TD*%
%TA.AperFunction,Conductor*%
%ADD26C,0.500000*%
%TD*%
%TA.AperFunction,Conductor*%
%ADD27C,0.300000*%
%TD*%
G04 APERTURE END LIST*
D10*
D11*
X55040225Y-112572257D02*
X54897368Y-112500828D01*
X54897368Y-112500828D02*
X54683082Y-112500828D01*
X54683082Y-112500828D02*
X54468796Y-112572257D01*
X54468796Y-112572257D02*
X54325939Y-112715114D01*
X54325939Y-112715114D02*
X54254510Y-112857971D01*
X54254510Y-112857971D02*
X54183082Y-113143685D01*
X54183082Y-113143685D02*
X54183082Y-113357971D01*
X54183082Y-113357971D02*
X54254510Y-113643685D01*
X54254510Y-113643685D02*
X54325939Y-113786542D01*
X54325939Y-113786542D02*
X54468796Y-113929400D01*
X54468796Y-113929400D02*
X54683082Y-114000828D01*
X54683082Y-114000828D02*
X54825939Y-114000828D01*
X54825939Y-114000828D02*
X55040225Y-113929400D01*
X55040225Y-113929400D02*
X55111653Y-113857971D01*
X55111653Y-113857971D02*
X55111653Y-113357971D01*
X55111653Y-113357971D02*
X54825939Y-113357971D01*
X55754510Y-114000828D02*
X55754510Y-112500828D01*
X55754510Y-112500828D02*
X56611653Y-114000828D01*
X56611653Y-114000828D02*
X56611653Y-112500828D01*
X57325939Y-114000828D02*
X57325939Y-112500828D01*
X57325939Y-112500828D02*
X57683082Y-112500828D01*
X57683082Y-112500828D02*
X57897368Y-112572257D01*
X57897368Y-112572257D02*
X58040225Y-112715114D01*
X58040225Y-112715114D02*
X58111654Y-112857971D01*
X58111654Y-112857971D02*
X58183082Y-113143685D01*
X58183082Y-113143685D02*
X58183082Y-113357971D01*
X58183082Y-113357971D02*
X58111654Y-113643685D01*
X58111654Y-113643685D02*
X58040225Y-113786542D01*
X58040225Y-113786542D02*
X57897368Y-113929400D01*
X57897368Y-113929400D02*
X57683082Y-114000828D01*
X57683082Y-114000828D02*
X57325939Y-114000828D01*
D10*
D11*
X40554510Y-107129400D02*
X41697368Y-107129400D01*
X41125939Y-107700828D02*
X41125939Y-106557971D01*
X43125939Y-106200828D02*
X42411653Y-106200828D01*
X42411653Y-106200828D02*
X42340225Y-106915114D01*
X42340225Y-106915114D02*
X42411653Y-106843685D01*
X42411653Y-106843685D02*
X42554511Y-106772257D01*
X42554511Y-106772257D02*
X42911653Y-106772257D01*
X42911653Y-106772257D02*
X43054511Y-106843685D01*
X43054511Y-106843685D02*
X43125939Y-106915114D01*
X43125939Y-106915114D02*
X43197368Y-107057971D01*
X43197368Y-107057971D02*
X43197368Y-107415114D01*
X43197368Y-107415114D02*
X43125939Y-107557971D01*
X43125939Y-107557971D02*
X43054511Y-107629400D01*
X43054511Y-107629400D02*
X42911653Y-107700828D01*
X42911653Y-107700828D02*
X42554511Y-107700828D01*
X42554511Y-107700828D02*
X42411653Y-107629400D01*
X42411653Y-107629400D02*
X42340225Y-107557971D01*
X43625939Y-106200828D02*
X44125939Y-107700828D01*
X44125939Y-107700828D02*
X44625939Y-106200828D01*
D12*
%TO.P,SW6,2,2_2*%
%TO.N,/BTN_6*%
X62350000Y-55116899D03*
X62350000Y-61616899D03*
%TO.P,SW6,1,1_1*%
%TO.N,+5V*%
X57850000Y-55116899D03*
X57850000Y-61616899D03*
%TD*%
D13*
%TO.P,C6,2*%
%TO.N,/BTN_6*%
X57892600Y-64459499D03*
%TO.P,C6,1*%
%TO.N,GND*%
X57892600Y-69459499D03*
%TD*%
%TO.P,R6,2*%
%TO.N,GND*%
X62304600Y-72081699D03*
%TO.P,R6,1*%
%TO.N,/BTN_6*%
X62304600Y-64461699D03*
%TD*%
%TO.P,U1,24,VCC_24*%
%TO.N,+5V*%
X118158100Y-144793400D03*
%TO.P,U1,23,A0_23*%
%TO.N,/SEL_A0*%
X115618100Y-144793400D03*
%TO.P,U1,22,A1_22*%
%TO.N,/SEL_A1*%
X113078100Y-144793400D03*
%TO.P,U1,21,A2_21*%
%TO.N,/SEL_A2*%
X110538100Y-144793400D03*
%TO.P,U1,20,A3_20*%
%TO.N,/SEL_A3*%
X107998100Y-144793400D03*
%TO.P,U1,19,E1_19*%
%TO.N,GND*%
X105458100Y-144793400D03*
%TO.P,U1,18,E0_18*%
X102918100Y-144793400D03*
%TO.P,U1,17,S15_17*%
%TO.N,unconnected-(U1-S15-Pad17)*%
X100378100Y-144793400D03*
%TO.P,U1,16,S14_16*%
%TO.N,unconnected-(U1-S14-Pad16)*%
X97838100Y-144793400D03*
%TO.P,U1,15,S13_15*%
%TO.N,unconnected-(U1-S13-Pad15)*%
X95298100Y-144793400D03*
%TO.P,U1,14,S12_14*%
%TO.N,unconnected-(U1-S12-Pad14)*%
X92758100Y-144793400D03*
%TO.P,U1,13,S11_13*%
%TO.N,/DIG_12*%
X90218100Y-144793400D03*
%TO.P,U1,12,GND_12*%
%TO.N,GND*%
X90218100Y-137173400D03*
%TO.P,U1,11,S10_11*%
%TO.N,/DIG_11*%
X92758100Y-137173400D03*
%TO.P,U1,10,S9_10*%
%TO.N,/DIG_10*%
X95298100Y-137173400D03*
%TO.P,U1,9,S8_9*%
%TO.N,/DIG_9*%
X97838100Y-137173400D03*
%TO.P,U1,8,S7_8*%
%TO.N,/DIG_8*%
X100378100Y-137173400D03*
%TO.P,U1,7,S6_7*%
%TO.N,/DIG_7*%
X102918100Y-137173400D03*
%TO.P,U1,6,S5_6*%
%TO.N,/DIG_6*%
X105458100Y-137173400D03*
%TO.P,U1,5,S4_5*%
%TO.N,/DIG_5*%
X107998100Y-137173400D03*
%TO.P,U1,4,S3_4*%
%TO.N,/DIG_4*%
X110538100Y-137173400D03*
%TO.P,U1,3,S2_3*%
%TO.N,/DIG_3*%
X113078100Y-137173400D03*
%TO.P,U1,2,S1_2*%
%TO.N,/DIG_2*%
X115618100Y-137173400D03*
D14*
%TO.P,U1,1,S0_1*%
%TO.N,/DIG_1*%
X118158100Y-137173400D03*
%TD*%
D15*
%TO.P,D2,2,A_2*%
%TO.N,Net-(D2-A)*%
X60765000Y-89100000D03*
D16*
%TO.P,D2,1,K_1*%
%TO.N,GND*%
X58225000Y-89100000D03*
%TD*%
D13*
%TO.P,C10,2*%
%TO.N,GND*%
X99465000Y-131340000D03*
%TO.P,C10,1*%
%TO.N,+5V*%
X94465000Y-131340000D03*
%TD*%
D17*
%TO.P,U4,1*%
%TO.N,/DIG_7*%
X102005000Y-127960000D03*
D13*
%TO.P,U4,2*%
%TO.N,/DIG_7_IN*%
X102005000Y-125420000D03*
%TO.P,U4,3*%
%TO.N,/DIG_8*%
X102005000Y-122880000D03*
%TO.P,U4,4*%
%TO.N,/DIG_8_IN*%
X102005000Y-120340000D03*
%TO.P,U4,5*%
%TO.N,/DIG_9*%
X102005000Y-117800000D03*
%TO.P,U4,6*%
%TO.N,/DIG_9_IN*%
X102005000Y-115260000D03*
%TO.P,U4,7,GND_7*%
%TO.N,GND*%
X102005000Y-112720000D03*
%TO.P,U4,8*%
%TO.N,/DIG_10_IN*%
X94385000Y-112720000D03*
%TO.P,U4,9*%
%TO.N,/DIG_10*%
X94385000Y-115260000D03*
%TO.P,U4,10*%
%TO.N,/DIG_11_IN*%
X94385000Y-117800000D03*
%TO.P,U4,11*%
%TO.N,/DIG_11*%
X94385000Y-120340000D03*
%TO.P,U4,12*%
%TO.N,/DIG_12_IN*%
X94385000Y-122880000D03*
%TO.P,U4,13*%
%TO.N,/DIG_12*%
X94385000Y-125420000D03*
%TO.P,U4,14,VCC_14*%
%TO.N,+5V*%
X94385000Y-127960000D03*
%TD*%
D17*
%TO.P,U3,1*%
%TO.N,/DIG_1*%
X120105000Y-127960000D03*
D13*
%TO.P,U3,2*%
%TO.N,/DIG_1_IN*%
X120105000Y-125420000D03*
%TO.P,U3,3*%
%TO.N,/DIG_2*%
X120105000Y-122880000D03*
%TO.P,U3,4*%
%TO.N,/DIG_2_IN*%
X120105000Y-120340000D03*
%TO.P,U3,5*%
%TO.N,/DIG_3*%
X120105000Y-117800000D03*
%TO.P,U3,6*%
%TO.N,/DIG_3_IN*%
X120105000Y-115260000D03*
%TO.P,U3,7,GND_7*%
%TO.N,GND*%
X120105000Y-112720000D03*
%TO.P,U3,8*%
%TO.N,/DIG_4_IN*%
X112485000Y-112720000D03*
%TO.P,U3,9*%
%TO.N,/DIG_4*%
X112485000Y-115260000D03*
%TO.P,U3,10*%
%TO.N,/DIG_5_IN*%
X112485000Y-117800000D03*
%TO.P,U3,11*%
%TO.N,/DIG_5*%
X112485000Y-120340000D03*
%TO.P,U3,12*%
%TO.N,/DIG_6_IN*%
X112485000Y-122880000D03*
%TO.P,U3,13*%
%TO.N,/DIG_6*%
X112485000Y-125420000D03*
%TO.P,U3,14,VCC_14*%
%TO.N,+5V*%
X112485000Y-127960000D03*
%TD*%
%TO.P,C9,2*%
%TO.N,+5V*%
X112605000Y-131340000D03*
%TO.P,C9,1*%
%TO.N,GND*%
X117605000Y-131340000D03*
%TD*%
%TO.P,C3,2*%
%TO.N,/BTN_3*%
X46600000Y-71358000D03*
%TO.P,C3,1*%
%TO.N,GND*%
X51600000Y-71358000D03*
%TD*%
%TO.P,C1,2*%
%TO.N,/BTN_1*%
X46600000Y-54700000D03*
%TO.P,C1,1*%
%TO.N,GND*%
X51600000Y-54700000D03*
%TD*%
%TO.P,R2,2*%
%TO.N,GND*%
X54210000Y-67700000D03*
%TO.P,R2,1*%
%TO.N,/BTN_2*%
X46590000Y-67700000D03*
%TD*%
%TO.P,C2,2*%
%TO.N,/BTN_2*%
X46700000Y-63200000D03*
%TO.P,C2,1*%
%TO.N,GND*%
X51700000Y-63200000D03*
%TD*%
%TO.P,R3,2*%
%TO.N,GND*%
X54210000Y-76358000D03*
%TO.P,R3,1*%
%TO.N,/BTN_3*%
X46590000Y-76358000D03*
%TD*%
D12*
%TO.P,SW5,2,2_2*%
%TO.N,/BTN_5*%
X43550000Y-93350000D03*
X37050000Y-93350000D03*
%TO.P,SW5,1,1_1*%
%TO.N,+5V*%
X43550000Y-88850000D03*
X37050000Y-88850000D03*
%TD*%
%TO.P,SW4,2,2_2*%
%TO.N,/BTN_4*%
X43550000Y-84800000D03*
X37050000Y-84800000D03*
%TO.P,SW4,1,1_1*%
%TO.N,+5V*%
X43550000Y-80300000D03*
X37050000Y-80300000D03*
%TD*%
%TO.P,SW3,2,2_2*%
%TO.N,/BTN_3*%
X43550000Y-76250000D03*
X37050000Y-76250000D03*
%TO.P,SW3,1,1_1*%
%TO.N,+5V*%
X43550000Y-71750000D03*
X37050000Y-71750000D03*
%TD*%
%TO.P,SW1,2,2_2*%
%TO.N,/BTN_1*%
X43550000Y-59150000D03*
X37050000Y-59150000D03*
%TO.P,SW1,1,1_1*%
%TO.N,+5V*%
X43550000Y-54650000D03*
X37050000Y-54650000D03*
%TD*%
D13*
%TO.P,C5,2*%
%TO.N,/BTN_5*%
X46688500Y-88898100D03*
%TO.P,C5,1*%
%TO.N,GND*%
X51688500Y-88898100D03*
%TD*%
%TO.P,R4,2*%
%TO.N,GND*%
X54310000Y-84855300D03*
%TO.P,R4,1*%
%TO.N,/BTN_4*%
X46690000Y-84855300D03*
%TD*%
%TO.P,C4,2*%
%TO.N,/BTN_4*%
X46700000Y-80300000D03*
%TO.P,C4,1*%
%TO.N,GND*%
X51700000Y-80300000D03*
%TD*%
%TO.P,R5,2*%
%TO.N,GND*%
X54360000Y-93347200D03*
%TO.P,R5,1*%
%TO.N,/BTN_5*%
X46740000Y-93347200D03*
%TD*%
D12*
%TO.P,SW2,2,2_2*%
%TO.N,/BTN_2*%
X43550000Y-67700000D03*
X37050000Y-67700000D03*
%TO.P,SW2,1,1_1*%
%TO.N,+5V*%
X43550000Y-63200000D03*
X37050000Y-63200000D03*
%TD*%
D13*
%TO.P,R1,2*%
%TO.N,GND*%
X54110000Y-59158000D03*
%TO.P,R1,1*%
%TO.N,/BTN_1*%
X46490000Y-59158000D03*
%TD*%
D18*
%TO.P,J1,1,Pin_1_1*%
%TO.N,/SEG_B*%
X85510000Y-118286900D03*
D19*
%TO.P,J1,2,Pin_2_2*%
%TO.N,/SEG_A*%
X82970000Y-118286900D03*
%TO.P,J1,3,Pin_3_3*%
%TO.N,/SEG_D*%
X85510000Y-120826900D03*
%TO.P,J1,4,Pin_4_4*%
%TO.N,/SEL_A3*%
X82970000Y-120826900D03*
%TO.P,J1,5,Pin_5_5*%
%TO.N,/SEG_F*%
X85510000Y-123366900D03*
%TO.P,J1,6,Pin_6_6*%
%TO.N,/SEL_A2*%
X82970000Y-123366900D03*
%TO.P,J1,7,Pin_7_7*%
%TO.N,/SEG_DP*%
X85510000Y-125906900D03*
%TO.P,J1,8,Pin_8_8*%
%TO.N,/SEL_A1*%
X82970000Y-125906900D03*
%TO.P,J1,9,Pin_9_9*%
%TO.N,/SEG_C*%
X85510000Y-128446900D03*
%TO.P,J1,10,Pin_10_10*%
%TO.N,/SEL_A0*%
X82970000Y-128446900D03*
%TO.P,J1,11,Pin_11_11*%
%TO.N,/SEG_G*%
X85510000Y-130986900D03*
%TO.P,J1,12,Pin_12_12*%
%TO.N,/Buzzer*%
X82970000Y-130986900D03*
%TO.P,J1,13,Pin_13_13*%
%TO.N,/Colon*%
X85510000Y-133526900D03*
%TO.P,J1,14,Pin_14_14*%
%TO.N,/LED_POS_AWAY*%
X82970000Y-133526900D03*
%TO.P,J1,15,Pin_15_15*%
%TO.N,/SEG_E*%
X85510000Y-136066900D03*
%TO.P,J1,16,Pin_16_16*%
%TO.N,/LED_POS_HOME*%
X82970000Y-136066900D03*
%TD*%
D13*
%TO.P,R12,2*%
%TO.N,/LED_POS_AWAY*%
X65110000Y-142500000D03*
%TO.P,R12,1*%
%TO.N,Net-(D6-A)*%
X57490000Y-142500000D03*
%TD*%
D15*
%TO.P,D5,2,A_2*%
%TO.N,Net-(D5-A)*%
X50000000Y-137765000D03*
D16*
%TO.P,D5,1,K_1*%
%TO.N,GND*%
X50000000Y-135225000D03*
%TD*%
D15*
%TO.P,D6,2,A_2*%
%TO.N,Net-(D6-A)*%
X57500000Y-137765000D03*
D16*
%TO.P,D6,1,K_1*%
%TO.N,GND*%
X57500000Y-135225000D03*
%TD*%
D13*
%TO.P,R11,2*%
%TO.N,/LED_POS_HOME*%
X42190000Y-142300000D03*
%TO.P,R11,1*%
%TO.N,Net-(D5-A)*%
X49810000Y-142300000D03*
%TD*%
D18*
%TO.P,J2,1,Pin_1_1*%
%TO.N,unconnected-(J2-Pin_1-Pad1)*%
X37290800Y-101100000D03*
D19*
%TO.P,J2,2,Pin_2_2*%
%TO.N,unconnected-(J2-Pin_2-Pad2)*%
X37290800Y-103640000D03*
%TO.P,J2,3,Pin_3_3*%
%TO.N,GND*%
X37290800Y-106180000D03*
%TO.P,J2,4,Pin_4_4*%
%TO.N,+5V*%
X37290800Y-108720000D03*
%TO.P,J2,5,Pin_5_5*%
%TO.N,unconnected-(J2-Pin_5-Pad5)*%
X37290800Y-111260000D03*
%TO.P,J2,6,Pin_6_6*%
%TO.N,unconnected-(J2-Pin_6-Pad6)*%
X37290800Y-113800000D03*
%TO.P,J2,7,Pin_7_7*%
%TO.N,unconnected-(J2-Pin_7-Pad7)*%
X37290800Y-116340000D03*
%TO.P,J2,8,Pin_8_8*%
%TO.N,unconnected-(J2-Pin_8-Pad8)*%
X37290800Y-118880000D03*
%TD*%
D20*
%TO.P,Q1,1,C_1*%
%TO.N,Net-(BZ1--)*%
X61830000Y-123360000D03*
D21*
%TO.P,Q1,2,B_2*%
%TO.N,Net-(Q1-B)*%
X63100000Y-123360000D03*
%TO.P,Q1,3,E_3*%
%TO.N,GND*%
X64370000Y-123360000D03*
%TD*%
D22*
%TO.P,DS3,1,CA_D1_1*%
%TO.N,/DIG_9_IN*%
X109499100Y-63716900D03*
%TO.P,DS3,2,CA_D2_2*%
%TO.N,/DIG_10_IN*%
X109499100Y-66256900D03*
%TO.P,DS3,3,D_3*%
%TO.N,/SEG_D*%
X109499100Y-68796900D03*
%TO.P,DS3,4,CA_L1_L2_4*%
%TO.N,/Colon*%
X109499100Y-71336900D03*
%TO.P,DS3,5,E_5*%
%TO.N,/SEG_E*%
X109499100Y-73876900D03*
%TO.P,DS3,6,CA_D3_6*%
%TO.N,/DIG_11_IN*%
X109499100Y-76416900D03*
%TO.P,DS3,7,DP_7*%
%TO.N,/SEG_DP*%
X109499100Y-78956900D03*
%TO.P,DS3,8,CA_D4_8*%
%TO.N,/DIG_12_IN*%
X109499100Y-81496900D03*
%TO.P,DS3,9,L3_9*%
%TO.N,GND*%
X119659100Y-81496900D03*
%TO.P,DS3,10,CA_L3_10*%
X119659100Y-78956900D03*
%TO.P,DS3,11,F_11*%
%TO.N,/SEG_F*%
X119659100Y-76416900D03*
%TO.P,DS3,12,L1_L2_12*%
%TO.N,GND*%
X119659100Y-73876900D03*
%TO.P,DS3,13,C_13*%
%TO.N,/SEG_C*%
X119659100Y-71336900D03*
%TO.P,DS3,14,A_14*%
%TO.N,/SEG_A*%
X119659100Y-68796900D03*
%TO.P,DS3,15,G_15*%
%TO.N,/SEG_G*%
X119659100Y-66256900D03*
%TO.P,DS3,16,B_16*%
%TO.N,/SEG_B*%
X119659100Y-63716900D03*
%TD*%
D13*
%TO.P,R10,1*%
%TO.N,Net-(D4-A)*%
X60690000Y-109540000D03*
%TO.P,R10,2*%
%TO.N,/LED_P4*%
X68310000Y-109540000D03*
%TD*%
%TO.P,C8,1*%
%TO.N,GND*%
X121878100Y-139793400D03*
%TO.P,C8,2*%
%TO.N,+5V*%
X121878100Y-144793400D03*
%TD*%
D16*
%TO.P,D4,1,K_1*%
%TO.N,GND*%
X58225000Y-104040000D03*
D15*
%TO.P,D4,2,A_2*%
%TO.N,Net-(D4-A)*%
X60765000Y-104040000D03*
%TD*%
D16*
%TO.P,D3,1,K_1*%
%TO.N,GND*%
X58225000Y-96570000D03*
D15*
%TO.P,D3,2,A_2*%
%TO.N,Net-(D3-A)*%
X60765000Y-96570000D03*
%TD*%
D22*
%TO.P,DS2,1,CA_D1_1*%
%TO.N,/DIG_5_IN*%
X92340000Y-63720000D03*
%TO.P,DS2,2,CA_D2_2*%
%TO.N,/DIG_6_IN*%
X92340000Y-66260000D03*
%TO.P,DS2,3,D_3*%
%TO.N,/SEG_D*%
X92340000Y-68800000D03*
%TO.P,DS2,4,CA_L1_L2_4*%
%TO.N,/Colon*%
X92340000Y-71340000D03*
%TO.P,DS2,5,E_5*%
%TO.N,/SEG_E*%
X92340000Y-73880000D03*
%TO.P,DS2,6,CA_D3_6*%
%TO.N,/DIG_7_IN*%
X92340000Y-76420000D03*
%TO.P,DS2,7,DP_7*%
%TO.N,/SEG_DP*%
X92340000Y-78960000D03*
%TO.P,DS2,8,CA_D4_8*%
%TO.N,/DIG_8_IN*%
X92340000Y-81500000D03*
%TO.P,DS2,9,L3_9*%
%TO.N,GND*%
X102500000Y-81500000D03*
%TO.P,DS2,10,CA_L3_10*%
X102500000Y-78960000D03*
%TO.P,DS2,11,F_11*%
%TO.N,/SEG_F*%
X102500000Y-76420000D03*
%TO.P,DS2,12,L1_L2_12*%
%TO.N,GND*%
X102500000Y-73880000D03*
%TO.P,DS2,13,C_13*%
%TO.N,/SEG_C*%
X102500000Y-71340000D03*
%TO.P,DS2,14,A_14*%
%TO.N,/SEG_A*%
X102500000Y-68800000D03*
%TO.P,DS2,15,G_15*%
%TO.N,/SEG_G*%
X102500000Y-66260000D03*
%TO.P,DS2,16,B_16*%
%TO.N,/SEG_B*%
X102500000Y-63720000D03*
%TD*%
D23*
%TO.P,BZ1,1,+_1*%
%TO.N,+5V*%
X48800000Y-123500000D03*
D12*
%TO.P,BZ1,2,-_2*%
%TO.N,Net-(BZ1--)*%
X56400000Y-123500000D03*
%TD*%
D16*
%TO.P,D1,1,K_1*%
%TO.N,GND*%
X58225000Y-81630000D03*
D15*
%TO.P,D1,2,A_2*%
%TO.N,Net-(D1-A)*%
X60765000Y-81630000D03*
%TD*%
D13*
%TO.P,R9,1*%
%TO.N,Net-(D3-A)*%
X66500000Y-96420000D03*
%TO.P,R9,2*%
%TO.N,/LED_P3*%
X66500000Y-104040000D03*
%TD*%
%TO.P,R8,1*%
%TO.N,Net-(D2-A)*%
X66500000Y-89350000D03*
%TO.P,R8,2*%
%TO.N,/LED_P2*%
X66500000Y-81730000D03*
%TD*%
%TO.P,R7,1*%
%TO.N,Net-(D1-A)*%
X60690000Y-76040000D03*
%TO.P,R7,2*%
%TO.N,/LED_P1*%
X68310000Y-76040000D03*
%TD*%
%TO.P,R13,1*%
%TO.N,Net-(Q1-B)*%
X69100000Y-123390000D03*
%TO.P,R13,2*%
%TO.N,/Buzzer*%
X69100000Y-131010000D03*
%TD*%
D22*
%TO.P,DS1,1,CA_D1_1*%
%TO.N,/DIG_1_IN*%
X75527100Y-63774100D03*
%TO.P,DS1,2,CA_D2_2*%
%TO.N,/DIG_2_IN*%
X75527100Y-66314100D03*
%TO.P,DS1,3,D_3*%
%TO.N,/SEG_D*%
X75527100Y-68854100D03*
%TO.P,DS1,4,CA_L1_L2_4*%
%TO.N,/Colon*%
X75527100Y-71394100D03*
%TO.P,DS1,5,E_5*%
%TO.N,/SEG_E*%
X75527100Y-73934100D03*
%TO.P,DS1,6,CA_D3_6*%
%TO.N,/DIG_3_IN*%
X75527100Y-76474100D03*
%TO.P,DS1,7,DP_7*%
%TO.N,/SEG_DP*%
X75527100Y-79014100D03*
%TO.P,DS1,8,CA_D4_8*%
%TO.N,/DIG_4_IN*%
X75527100Y-81554100D03*
%TO.P,DS1,9,L3_9*%
%TO.N,GND*%
X85687100Y-81554100D03*
%TO.P,DS1,10,CA_L3_10*%
X85687100Y-79014100D03*
%TO.P,DS1,11,F_11*%
%TO.N,/SEG_F*%
X85687100Y-76474100D03*
%TO.P,DS1,12,L1_L2_12*%
%TO.N,GND*%
X85687100Y-73934100D03*
%TO.P,DS1,13,C_13*%
%TO.N,/SEG_C*%
X85687100Y-71394100D03*
%TO.P,DS1,14,A_14*%
%TO.N,/SEG_A*%
X85687100Y-68854100D03*
%TO.P,DS1,15,G_15*%
%TO.N,/SEG_G*%
X85687100Y-66314100D03*
%TO.P,DS1,16,B_16*%
%TO.N,/SEG_B*%
X85687100Y-63774100D03*
%TD*%
D18*
%TO.P,J3,1,Pin_1_1*%
%TO.N,/BTN_6*%
X39840000Y-123380000D03*
D19*
%TO.P,J3,2,Pin_2_2*%
%TO.N,/BTN_1*%
X37300000Y-123380000D03*
%TO.P,J3,3,Pin_3_3*%
%TO.N,/LED_P1*%
X39840000Y-125920000D03*
%TO.P,J3,4,Pin_4_4*%
%TO.N,/BTN_2*%
X37300000Y-125920000D03*
%TO.P,J3,5,Pin_5_5*%
%TO.N,/LED_P2*%
X39840000Y-128460000D03*
%TO.P,J3,6,Pin_6_6*%
%TO.N,/BTN_3*%
X37300000Y-128460000D03*
%TO.P,J3,7,Pin_7_7*%
%TO.N,/LED_P3*%
X39840000Y-131000000D03*
%TO.P,J3,8,Pin_8_8*%
%TO.N,/BTN_4*%
X37300000Y-131000000D03*
%TO.P,J3,9,Pin_9_9*%
%TO.N,/LED_P4*%
X39840000Y-133540000D03*
%TO.P,J3,10,Pin_10_10*%
%TO.N,/BTN_5*%
X37300000Y-133540000D03*
%TO.P,J3,11,Pin_11_11*%
%TO.N,unconnected-(J3-Pin_11-Pad11)*%
X39840000Y-136080000D03*
%TO.P,J3,12,Pin_12_12*%
%TO.N,unconnected-(J3-Pin_12-Pad12)*%
X37300000Y-136080000D03*
%TD*%
D24*
%TO.N,/SEL_A3*%
X99253700Y-122597900D03*
%TO.N,/SEL_A1*%
X84882000Y-138684700D03*
%TO.N,/LED_P2*%
X60358500Y-126781500D03*
%TO.N,/LED_P1*%
X66706000Y-117854100D03*
%TO.N,/LED_P3*%
X63301500Y-129757300D03*
%TO.N,/LED_P4*%
X66244500Y-132733100D03*
%TO.N,/DIG_12_IN*%
X107446500Y-120829900D03*
%TO.N,/DIG_11_IN*%
X107226900Y-115230000D03*
%TO.N,/DIG_10_IN*%
X106724200Y-111902500D03*
%TO.N,/BTN_4*%
X33883200Y-85120300D03*
%TO.N,/BTN_3*%
X33926500Y-76192900D03*
%TO.N,/SEL_A0*%
X116495200Y-129404700D03*
%TO.N,/SEG_DP*%
X87359300Y-77896100D03*
%TO.N,/SEL_A2*%
X86845500Y-144636300D03*
%TO.N,/SEG_E*%
X75073500Y-75208500D03*
%TO.N,/SEG_D*%
X89310800Y-120460100D03*
%TO.N,/SEG_C*%
X87764100Y-75841300D03*
X100699900Y-75576800D03*
%TO.N,/SEG_B*%
X82625500Y-116901500D03*
%TO.N,/SEG_A*%
X104848000Y-66973100D03*
%TO.N,+5V*%
X49601300Y-112933600D03*
X120413200Y-135906600D03*
X90937200Y-114878300D03*
%TO.N,/DIG_6*%
X104444100Y-128885200D03*
%TO.N,/DIG_6_IN*%
X111274700Y-64568600D03*
%TO.N,/DIG_5_IN*%
X99646300Y-113943800D03*
%TO.N,/DIG_4_IN*%
X76898900Y-108926700D03*
%TO.N,/DIG_3_IN*%
X78016500Y-105950900D03*
%TO.N,/DIG_2_IN*%
X80804000Y-117854100D03*
%TO.N,/DIG_1_IN*%
X87304000Y-123687300D03*
D25*
%TO.N,GND*%
X39500000Y-106000000D03*
X100500000Y-100000000D03*
X120000000Y-90000000D03*
D24*
%TO.N,/BTN_2*%
X37082400Y-120928700D03*
%TD*%
%TO.N,+5V*%
D26*
X57850000Y-61616899D02*
X57850000Y-55116899D01*
%TO.N,GND*%
X57892600Y-69459499D02*
X59682400Y-69459499D01*
X59682400Y-69459499D02*
X62304600Y-72081699D01*
%TO.N,/BTN_6*%
D27*
X56695601Y-64459499D02*
X56355100Y-64800000D01*
X57892600Y-64459499D02*
X56695601Y-64459499D01*
X56355100Y-64800000D02*
X56355100Y-105258300D01*
%TO.N,+5V*%
D26*
X56183101Y-53450000D02*
X57850000Y-55116899D01*
X44750000Y-53450000D02*
X56183101Y-53450000D01*
X43550000Y-54650000D02*
X44750000Y-53450000D01*
D27*
X57892600Y-62092600D02*
X58514800Y-62092600D01*
%TO.N,/DIG_9_IN*%
X105821900Y-111443100D02*
X105821900Y-65518400D01*
%TO.N,/SEL_A3*%
X99253700Y-124332100D02*
X99253700Y-122597900D01*
X101512300Y-126590700D02*
X99253700Y-124332100D01*
X103071200Y-126590700D02*
X101512300Y-126590700D01*
X106728100Y-130247600D02*
X103071200Y-126590700D01*
X106728100Y-143523400D02*
X106728100Y-130247600D01*
X107998100Y-144793400D02*
X106728100Y-143523400D01*
%TO.N,/SEL_A1*%
X81713900Y-127163000D02*
X82970000Y-125906900D01*
X81713900Y-136551100D02*
X81713900Y-127163000D01*
X83847500Y-138684700D02*
X81713900Y-136551100D01*
X84882000Y-138684700D02*
X83847500Y-138684700D01*
%TO.N,/LED_P2*%
X60358500Y-122803000D02*
X60358500Y-126781500D01*
X63028900Y-120132600D02*
X60358500Y-122803000D01*
X63028900Y-85201100D02*
X63028900Y-120132600D01*
X66500000Y-81730000D02*
X63028900Y-85201100D01*
%TO.N,/LED_P1*%
X69511400Y-77241400D02*
X68310000Y-76040000D01*
X69511400Y-115048700D02*
X69511400Y-77241400D01*
X66706000Y-117854100D02*
X69511400Y-115048700D01*
%TO.N,/LED_P3*%
X65375800Y-127683000D02*
X63301500Y-129757300D01*
X65375800Y-105164200D02*
X65375800Y-127683000D01*
X66500000Y-104040000D02*
X65375800Y-105164200D01*
%TO.N,Net-(D1-A)*%
X60765000Y-76115000D02*
X60765000Y-81630000D01*
X60690000Y-76040000D02*
X60765000Y-76115000D01*
%TO.N,/DIG_12*%
X94385000Y-126049500D02*
X94385000Y-125420000D01*
X95645500Y-127310000D02*
X94385000Y-126049500D01*
X95645500Y-132465100D02*
X95645500Y-127310000D01*
X91488100Y-136622500D02*
X95645500Y-132465100D01*
X91488100Y-143523400D02*
X91488100Y-136622500D01*
X90218100Y-144793400D02*
X91488100Y-143523400D01*
%TO.N,/DIG_11*%
X96147200Y-126852100D02*
X95853200Y-126558100D01*
X96147200Y-133784300D02*
X96147200Y-126852100D01*
X92758100Y-137173400D02*
X96147200Y-133784300D01*
X95645500Y-121600500D02*
X94385000Y-120340000D01*
X95645500Y-126350400D02*
X95645500Y-121600500D01*
X95853200Y-126558100D02*
X95645500Y-126350400D01*
X95853200Y-126558100D02*
X95645500Y-126350400D01*
%TO.N,/DIG_10*%
X96648900Y-126644400D02*
X96354900Y-126350400D01*
X96648900Y-135822600D02*
X96648900Y-126644400D01*
X95298100Y-137173400D02*
X96648900Y-135822600D01*
X96147200Y-117022200D02*
X94385000Y-115260000D01*
X96147200Y-126142700D02*
X96147200Y-117022200D01*
X96354900Y-126350400D02*
X96147200Y-126142700D01*
X96354900Y-126350400D02*
X96147200Y-126142700D01*
%TO.N,/DIG_9*%
X97738200Y-137073500D02*
X97838100Y-137173400D01*
X97738200Y-122412600D02*
X97738200Y-137073500D01*
X98754800Y-121396000D02*
X97738200Y-122412600D01*
X101432300Y-121396000D02*
X98754800Y-121396000D01*
X101560700Y-121524400D02*
X101432300Y-121396000D01*
X102449600Y-121524400D02*
X101560700Y-121524400D01*
X103179700Y-120794300D02*
X102449600Y-121524400D01*
X103179700Y-118974700D02*
X103179700Y-120794300D01*
X102005000Y-117800000D02*
X103179700Y-118974700D01*
%TO.N,/DIG_8*%
X101026600Y-121901600D02*
X102005000Y-122880000D01*
X99002200Y-121901600D02*
X101026600Y-121901600D01*
X98284900Y-122618900D02*
X99002200Y-121901600D01*
X98284900Y-135080200D02*
X98284900Y-122618900D01*
X100378100Y-137173400D02*
X98284900Y-135080200D01*
%TO.N,/DIG_7*%
X102918100Y-128873100D02*
X102918100Y-137173400D01*
X102005000Y-127960000D02*
X102918100Y-128873100D01*
%TO.N,/DIG_8_IN*%
X96647400Y-114982400D02*
X102005000Y-120340000D01*
X96647400Y-112687900D02*
X96647400Y-114982400D01*
X92340000Y-108380500D02*
X96647400Y-112687900D01*
X92340000Y-81500000D02*
X92340000Y-108380500D01*
%TO.N,/DIG_7_IN*%
X92340000Y-76420000D02*
X94215700Y-76420000D01*
X94215700Y-109434700D02*
X94215700Y-76420000D01*
X101311000Y-116530000D02*
X94215700Y-109434700D01*
X102401300Y-116530000D02*
X101311000Y-116530000D01*
X103681400Y-117810100D02*
X102401300Y-116530000D01*
X103681400Y-123743600D02*
X103681400Y-117810100D01*
X102005000Y-125420000D02*
X103681400Y-123743600D01*
%TO.N,/LED_P4*%
X66054200Y-111795800D02*
X68310000Y-109540000D01*
X66054200Y-132542800D02*
X66054200Y-111795800D01*
X66244500Y-132733100D02*
X66054200Y-132542800D01*
%TO.N,Net-(D4-A)*%
X60765000Y-109465000D02*
X60690000Y-109540000D01*
X60765000Y-104040000D02*
X60765000Y-109465000D01*
%TO.N,/DIG_12_IN*%
X109499100Y-118777300D02*
X107446500Y-120829900D01*
X109499100Y-81496900D02*
X109499100Y-118777300D01*
%TO.N,/DIG_11_IN*%
X107623400Y-114833500D02*
X107226900Y-115230000D01*
X107623400Y-76416900D02*
X107623400Y-114833500D01*
X109499100Y-76416900D02*
X107623400Y-76416900D01*
%TO.N,/DIG_10_IN*%
X106724200Y-67156100D02*
X107623400Y-66256900D01*
X106724200Y-111902500D02*
X106724200Y-67156100D01*
X109499100Y-66256900D02*
X107623400Y-66256900D01*
%TO.N,/DIG_9_IN*%
X105821900Y-65518400D02*
X107623400Y-63716900D01*
X102005000Y-115260000D02*
X105821900Y-111443100D01*
X109499100Y-63716900D02*
X107623400Y-63716900D01*
%TO.N,Net-(D5-A)*%
X50000000Y-142110000D02*
X50000000Y-137765000D01*
X49810000Y-142300000D02*
X50000000Y-142110000D01*
%TO.N,Net-(D6-A)*%
X57490000Y-137775000D02*
X57490000Y-142500000D01*
X57500000Y-137765000D02*
X57490000Y-137775000D01*
%TO.N,/BTN_5*%
X46688500Y-93295700D02*
X46740000Y-93347200D01*
X46688500Y-88898100D02*
X46688500Y-93295700D01*
X36056500Y-94343500D02*
X37050000Y-93350000D01*
X36056500Y-116817500D02*
X36056500Y-94343500D01*
X36917300Y-117678300D02*
X36056500Y-116817500D01*
X37788600Y-117678300D02*
X36917300Y-117678300D01*
X38570000Y-118459700D02*
X37788600Y-117678300D01*
X38570000Y-132270000D02*
X38570000Y-118459700D01*
X37300000Y-133540000D02*
X38570000Y-132270000D01*
%TO.N,/BTN_4*%
X46700000Y-84845300D02*
X46690000Y-84855300D01*
X46700000Y-80300000D02*
X46700000Y-84845300D01*
X33883200Y-127583200D02*
X33883200Y-85120300D01*
X37300000Y-131000000D02*
X33883200Y-127583200D01*
%TO.N,/BTN_3*%
X46600000Y-76348000D02*
X46590000Y-76358000D01*
X46600000Y-71358000D02*
X46600000Y-76348000D01*
X35036700Y-126196700D02*
X37300000Y-128460000D01*
X35036700Y-119116200D02*
X35036700Y-126196700D01*
X34829000Y-118908500D02*
X35036700Y-119116200D01*
X34829000Y-118908500D02*
X35036700Y-119116200D01*
X34535000Y-118614500D02*
X34829000Y-118908500D01*
X34535000Y-76801400D02*
X34535000Y-118614500D01*
X33926500Y-76192900D02*
X34535000Y-76801400D01*
%TO.N,/Colon*%
X92340000Y-71340000D02*
X90464300Y-71340000D01*
X89962600Y-129074300D02*
X85510000Y-133526900D01*
X89962600Y-115534600D02*
X89962600Y-129074300D01*
X89783800Y-115355800D02*
X89962600Y-115534600D01*
X89783800Y-72020500D02*
X89783800Y-115355800D01*
X90464300Y-71340000D02*
X89783800Y-72020500D01*
%TO.N,/SEG_G*%
X85687100Y-66314100D02*
X87562800Y-66314100D01*
X89460900Y-127036000D02*
X85510000Y-130986900D01*
X89460900Y-121531600D02*
X89460900Y-127036000D01*
X89041100Y-121111800D02*
X89460900Y-121531600D01*
X89041000Y-121111800D02*
X89041100Y-121111800D01*
X88659100Y-120729900D02*
X89041000Y-121111800D01*
X88659100Y-120190300D02*
X88659100Y-120729900D01*
X88959200Y-119890200D02*
X88659100Y-120190300D01*
X88959200Y-115950000D02*
X88959200Y-119890200D01*
X88780400Y-115771200D02*
X88959200Y-115950000D01*
X88780400Y-67531700D02*
X88780400Y-115771200D01*
X87562800Y-66314100D02*
X88780400Y-67531700D01*
%TO.N,/SEL_A0*%
X116788800Y-143622700D02*
X115618100Y-144793400D01*
X116788800Y-132510700D02*
X116788800Y-143622700D01*
X116414200Y-132136100D02*
X116788800Y-132510700D01*
X116414200Y-129485700D02*
X116414200Y-132136100D01*
X116495200Y-129404700D02*
X116414200Y-129485700D01*
%TO.N,/SEG_DP*%
X87770500Y-116835000D02*
X87564300Y-116628800D01*
X87770500Y-116835000D02*
X87564300Y-116628800D01*
X87564300Y-78101100D02*
X87359300Y-77896100D01*
X87564300Y-116628800D02*
X87564300Y-78101100D01*
X87949700Y-121439300D02*
X88064500Y-121554100D01*
X87949700Y-121439300D02*
X88064500Y-121554100D01*
X87655700Y-121145300D02*
X87949700Y-121439300D01*
X87655700Y-116949800D02*
X87655700Y-121145300D01*
X87770500Y-116835000D02*
X87655700Y-116949800D01*
X86752000Y-125906900D02*
X85510000Y-125906900D01*
X88457500Y-124201400D02*
X86752000Y-125906900D01*
X88457500Y-122055400D02*
X88457500Y-124201400D01*
X88064500Y-121662400D02*
X88457500Y-122055400D01*
X88064500Y-121554100D02*
X88064500Y-121662400D01*
%TO.N,/SEL_A2*%
X86845500Y-139372400D02*
X86845500Y-144636300D01*
X84240000Y-136766900D02*
X86845500Y-139372400D01*
X84240000Y-124636900D02*
X84240000Y-136766900D01*
X82970000Y-123366900D02*
X84240000Y-124636900D01*
%TO.N,/SEG_F*%
X85687100Y-76474100D02*
X83811400Y-76474100D01*
X83811400Y-83079600D02*
X83811400Y-76474100D01*
X87062600Y-86330800D02*
X83811400Y-83079600D01*
X87062600Y-121369900D02*
X87062600Y-86330800D01*
X87955800Y-122263100D02*
X87062600Y-121369900D01*
X87955800Y-123993700D02*
X87955800Y-122263100D01*
X87127700Y-124821800D02*
X87955800Y-123993700D01*
X86964900Y-124821800D02*
X87127700Y-124821800D01*
X85510000Y-123366900D02*
X86964900Y-124821800D01*
%TO.N,/SEG_E*%
X74464500Y-75208500D02*
X75073500Y-75208500D01*
X73651400Y-74395400D02*
X74464500Y-75208500D01*
X73651400Y-73934100D02*
X73651400Y-74395400D01*
X75527100Y-73934100D02*
X73651400Y-73934100D01*
X92340000Y-73880000D02*
X90464300Y-73880000D01*
X90464300Y-131112600D02*
X85510000Y-136066900D01*
X90464300Y-115326900D02*
X90464300Y-131112600D01*
X90285500Y-115148100D02*
X90464300Y-115326900D01*
X90285500Y-74058800D02*
X90285500Y-115148100D01*
X90464300Y-73880000D02*
X90285500Y-74058800D01*
%TO.N,/SEG_D*%
X92340000Y-68800000D02*
X90464300Y-68800000D01*
X89460900Y-120310000D02*
X89310800Y-120460100D01*
X89460900Y-115742300D02*
X89460900Y-120310000D01*
X89282100Y-115563500D02*
X89460900Y-115742300D01*
X89282100Y-69982200D02*
X89282100Y-115563500D01*
X90464300Y-68800000D02*
X89282100Y-69982200D01*
%TO.N,/SEG_C*%
X85687100Y-71394100D02*
X87562800Y-71394100D01*
X88278700Y-76355900D02*
X87764100Y-75841300D01*
X88278700Y-115978900D02*
X88278700Y-76355900D01*
X88457500Y-116157700D02*
X88278700Y-115978900D01*
X88457500Y-119682500D02*
X88457500Y-116157700D01*
X88157400Y-119982600D02*
X88457500Y-119682500D01*
X88157400Y-120937600D02*
X88157400Y-119982600D01*
X88566200Y-121346400D02*
X88157400Y-120937600D01*
X88566200Y-121454700D02*
X88566200Y-121346400D01*
X88959200Y-121847700D02*
X88566200Y-121454700D01*
X88959200Y-124997700D02*
X88959200Y-121847700D01*
X85510000Y-128446900D02*
X88959200Y-124997700D01*
X100624300Y-75501200D02*
X100624300Y-71340000D01*
X100699900Y-75576800D02*
X100624300Y-75501200D01*
X102500000Y-71340000D02*
X100624300Y-71340000D01*
X87764100Y-71595400D02*
X87764100Y-75841300D01*
X87562800Y-71394100D02*
X87764100Y-71595400D01*
%TO.N,/SEG_B*%
X82625500Y-64960000D02*
X83811400Y-63774100D01*
X82625500Y-116901500D02*
X82625500Y-64960000D01*
X85687100Y-63774100D02*
X83811400Y-63774100D01*
%TO.N,/SEG_A*%
X85687100Y-68854100D02*
X83811400Y-68854100D01*
X83309700Y-117947200D02*
X82970000Y-118286900D01*
X83309700Y-69355800D02*
X83309700Y-117947200D01*
X83811400Y-68854100D02*
X83309700Y-69355800D01*
X104375700Y-67445400D02*
X104375700Y-68800000D01*
X104848000Y-66973100D02*
X104375700Y-67445400D01*
X102500000Y-68800000D02*
X104375700Y-68800000D01*
%TO.N,/BTN_6*%
X62350000Y-62049400D02*
X62304600Y-62094800D01*
X62302300Y-62092600D02*
X62304600Y-62094800D01*
X39840000Y-123380000D02*
X39840000Y-122178300D01*
X39840000Y-121773400D02*
X39840000Y-122178300D01*
X56355100Y-105258300D02*
X39840000Y-121773400D01*
%TO.N,+5V*%
D26*
X38500000Y-56100000D02*
X37050000Y-54650000D01*
X38500000Y-61750000D02*
X38500000Y-56100000D01*
X37050000Y-63200000D02*
X38500000Y-61750000D01*
X38500000Y-64650000D02*
X37050000Y-63200000D01*
X38500000Y-70300000D02*
X38500000Y-64650000D01*
X37050000Y-71750000D02*
X38500000Y-70300000D01*
X38500000Y-73200000D02*
X37050000Y-71750000D01*
X38500000Y-78850000D02*
X38500000Y-73200000D01*
X37050000Y-80300000D02*
X38500000Y-78850000D01*
X38500000Y-81750000D02*
X37050000Y-80300000D01*
X38500000Y-87400000D02*
X38500000Y-81750000D01*
X37050000Y-88850000D02*
X38500000Y-87400000D01*
X37911400Y-108720000D02*
X37290800Y-108720000D01*
X40300000Y-106331000D02*
X37911400Y-108720000D01*
X40300000Y-92100000D02*
X40300000Y-106331000D01*
X37050000Y-88850000D02*
X40300000Y-92100000D01*
X49601300Y-121247000D02*
X48800000Y-122048300D01*
X49601300Y-112933600D02*
X49601300Y-121247000D01*
X48800000Y-123500000D02*
X48800000Y-122048300D01*
X112605000Y-128080000D02*
X112605000Y-131340000D01*
X112485000Y-127960000D02*
X112605000Y-128080000D01*
X120413200Y-143328500D02*
X121878100Y-144793400D01*
X120413200Y-135906600D02*
X120413200Y-143328500D01*
X94385000Y-131260000D02*
X94385000Y-127960000D01*
X94465000Y-131340000D02*
X94385000Y-131260000D01*
X92735000Y-116676100D02*
X90937200Y-114878300D01*
X92735000Y-126310000D02*
X92735000Y-116676100D01*
X94385000Y-127960000D02*
X92735000Y-126310000D01*
%TO.N,/DIG_6*%
D27*
X104444100Y-136159400D02*
X105458100Y-137173400D01*
X104444100Y-128885200D02*
X104444100Y-136159400D01*
%TO.N,/DIG_6_IN*%
X113695100Y-121669900D02*
X112485000Y-122880000D01*
X113695100Y-66989000D02*
X113695100Y-121669900D01*
X111274700Y-64568600D02*
X113695100Y-66989000D01*
%TO.N,/DIG_5*%
X111326800Y-121498200D02*
X112485000Y-120340000D01*
X111326800Y-134382100D02*
X111326800Y-121498200D01*
X111689800Y-134745100D02*
X111326800Y-134382100D01*
X111689800Y-137760600D02*
X111689800Y-134745100D01*
X111107700Y-138342700D02*
X111689800Y-137760600D01*
X109167400Y-138342700D02*
X111107700Y-138342700D01*
X107998100Y-137173400D02*
X109167400Y-138342700D01*
%TO.N,/DIG_5_IN*%
X92340000Y-63720000D02*
X94215700Y-63720000D01*
X99646300Y-69150600D02*
X99646300Y-113943800D01*
X94215700Y-63720000D02*
X99646300Y-69150600D01*
%TO.N,/DIG_4*%
X110538100Y-117206900D02*
X110538100Y-137173400D01*
X112485000Y-115260000D02*
X110538100Y-117206900D01*
%TO.N,/DIG_4_IN*%
X75527100Y-107554900D02*
X75527100Y-81554100D01*
X76898900Y-108926700D02*
X75527100Y-107554900D01*
%TO.N,/DIG_3_IN*%
X77402800Y-105337200D02*
X78016500Y-105950900D01*
X77402800Y-76474100D02*
X77402800Y-105337200D01*
X75527100Y-76474100D02*
X77402800Y-76474100D01*
%TO.N,/DIG_3*%
X115091900Y-135159600D02*
X113078100Y-137173400D01*
X115091900Y-122813100D02*
X115091900Y-135159600D01*
X120105000Y-117800000D02*
X115091900Y-122813100D01*
%TO.N,/DIG_2_IN*%
X75527100Y-66314100D02*
X77402800Y-66314100D01*
X80804000Y-69715300D02*
X80804000Y-117854100D01*
X77402800Y-66314100D02*
X80804000Y-69715300D01*
%TO.N,/DIG_2*%
X115618100Y-127366900D02*
X115618100Y-137173400D01*
X120105000Y-122880000D02*
X115618100Y-127366900D01*
%TO.N,/DIG_1_IN*%
X75527100Y-63774100D02*
X77402800Y-63774100D01*
X81550800Y-67922100D02*
X77402800Y-63774100D01*
X81550800Y-118651900D02*
X81550800Y-67922100D01*
X82455800Y-119556900D02*
X81550800Y-118651900D01*
X83416600Y-119556900D02*
X82455800Y-119556900D01*
X84240000Y-120380300D02*
X83416600Y-119556900D01*
X84240000Y-121325700D02*
X84240000Y-120380300D01*
X84942900Y-122028600D02*
X84240000Y-121325700D01*
X85891200Y-122028600D02*
X84942900Y-122028600D01*
X87304000Y-123441400D02*
X85891200Y-122028600D01*
X87304000Y-123687300D02*
X87304000Y-123441400D01*
%TO.N,/DIG_1*%
X120105000Y-135226500D02*
X120105000Y-127960000D01*
X118158100Y-137173400D02*
X120105000Y-135226500D01*
%TO.N,/BTN_1*%
X43558000Y-59158000D02*
X43550000Y-59150000D01*
X46490000Y-59158000D02*
X43558000Y-59158000D01*
X46600000Y-59048000D02*
X46490000Y-59158000D01*
X46600000Y-54700000D02*
X46600000Y-59048000D01*
X35538400Y-121618400D02*
X37300000Y-123380000D01*
X35538400Y-118908400D02*
X35538400Y-121618400D01*
X35036700Y-118406700D02*
X35538400Y-118908400D01*
X35036700Y-61163300D02*
X35036700Y-118406700D01*
X37050000Y-59150000D02*
X35036700Y-61163300D01*
%TO.N,GND*%
D26*
X39320000Y-106180000D02*
X39500000Y-106000000D01*
X37290800Y-106180000D02*
X39320000Y-106180000D01*
X85687100Y-81554100D02*
X85687100Y-79014100D01*
X101648100Y-143523400D02*
X102918100Y-144793400D01*
X101648100Y-133523100D02*
X101648100Y-143523400D01*
X99465000Y-131340000D02*
X101648100Y-133523100D01*
X102005000Y-101505000D02*
X102005000Y-112720000D01*
X100500000Y-100000000D02*
X102005000Y-101505000D01*
X102500000Y-98000000D02*
X102500000Y-81500000D01*
X100500000Y-100000000D02*
X102500000Y-98000000D01*
X57500000Y-135225000D02*
X57500000Y-133873300D01*
X58225000Y-81630000D02*
X58225000Y-89100000D01*
X51700000Y-71258000D02*
X51600000Y-71358000D01*
X51700000Y-63200000D02*
X51700000Y-71258000D01*
X54360000Y-84905300D02*
X54360000Y-93347200D01*
X54310000Y-84855300D02*
X54360000Y-84905300D01*
X58225000Y-96570000D02*
X58225000Y-89100000D01*
X54110000Y-67610000D02*
X54110000Y-59158000D01*
X54205000Y-67705000D02*
X54110000Y-67610000D01*
X54200000Y-67710000D02*
X54205000Y-67705000D01*
X54205000Y-67705000D02*
X54210000Y-67700000D01*
X119659100Y-81496900D02*
X119659100Y-78956900D01*
X120000000Y-81837800D02*
X120000000Y-90000000D01*
X119659100Y-81496900D02*
X120000000Y-81837800D01*
X54310000Y-76458000D02*
X54210000Y-76358000D01*
X54310000Y-84855300D02*
X54310000Y-76458000D01*
X54200000Y-76348000D02*
X54200000Y-67710000D01*
X54210000Y-76358000D02*
X54200000Y-76348000D01*
X58225000Y-104040000D02*
X58225000Y-105391700D01*
X59011400Y-132361900D02*
X59011400Y-127591700D01*
X57500000Y-133873300D02*
X59011400Y-132361900D01*
X51700100Y-63200000D02*
X51700000Y-63200000D01*
X51700100Y-61567900D02*
X51700100Y-63200000D01*
X54110000Y-59158000D02*
X51700100Y-61567900D01*
X51600000Y-56648000D02*
X51600000Y-54700000D01*
X54110000Y-59158000D02*
X51600000Y-56648000D01*
X102500000Y-78960000D02*
X102500000Y-81500000D01*
X64370000Y-123360000D02*
X64370000Y-124561700D01*
X61340000Y-127591700D02*
X59011400Y-127591700D01*
X64370000Y-124561700D02*
X61340000Y-127591700D01*
X59011400Y-106178100D02*
X58225000Y-105391700D01*
X59011400Y-127591700D02*
X59011400Y-106178100D01*
X121878100Y-114493100D02*
X120105000Y-112720000D01*
X121878100Y-139793400D02*
X121878100Y-114493100D01*
X120105000Y-90105000D02*
X120000000Y-90000000D01*
X120105000Y-112720000D02*
X120105000Y-90105000D01*
X51699900Y-88886700D02*
X51699900Y-81610400D01*
X51688500Y-88898100D02*
X51699900Y-88886700D01*
X51700000Y-81610400D02*
X51699900Y-81610400D01*
X51700000Y-80300000D02*
X51700000Y-81610400D01*
X51600000Y-81510500D02*
X51600000Y-71358000D01*
X51699900Y-81610400D02*
X51600000Y-81510500D01*
X58225000Y-96570000D02*
X58225000Y-105391700D01*
X104514800Y-76945200D02*
X102500000Y-78960000D01*
X104514800Y-75894800D02*
X104514800Y-76945200D01*
X102500000Y-73880000D02*
X104514800Y-75894800D01*
%TO.N,/BTN_2*%
D27*
X46700000Y-67590000D02*
X46590000Y-67700000D01*
X46700000Y-63200000D02*
X46700000Y-67590000D01*
X35538400Y-69211600D02*
X37050000Y-67700000D01*
X35538400Y-117931100D02*
X35538400Y-69211600D01*
X36089100Y-118481800D02*
X35538400Y-117931100D01*
X36089100Y-119935400D02*
X36089100Y-118481800D01*
X37082400Y-120928700D02*
X36089100Y-119935400D01*
%TO.N,/BTN_6*%
X62350000Y-55116899D02*
X62350000Y-61616899D01*
X62350000Y-61616899D02*
X62350000Y-64416299D01*
X62350000Y-64416299D02*
X62304600Y-64461699D01*
X57892600Y-64459499D02*
X62302400Y-64459499D01*
X62302400Y-64459499D02*
X62304600Y-64461699D01*
%TD*%
M02*
