%TF.GenerationSoftware,KiCad,Pcbnew,10.0.0*%
%TF.CreationDate,2026-04-16T14:40:55-04:00*%
%TF.ProjectId,17pinPCB,31377069-6e50-4434-922e-6b696361645f,rev?*%
%TF.SameCoordinates,Original*%
%TF.FileFunction,Legend,Top*%
%TF.FilePolarity,Positive*%
%FSLAX46Y46*%
G04 Gerber Fmt 4.6, Leading zero omitted, Abs format (unit mm)*
G04 Created by KiCad (PCBNEW 10.0.0) date 2026-04-16 14:40:55*
%MOMM*%
%LPD*%
G01*
G04 APERTURE LIST*
%ADD10C,0.100000*%
%ADD11C,0.150000*%
%ADD12C,0.120000*%
%ADD13C,0.203200*%
%ADD14C,0.730500*%
%ADD15C,0.397600*%
G04 APERTURE END LIST*
D10*
X87575200Y-57720365D02*
X87527580Y-57863222D01*
X87527580Y-57863222D02*
X87527580Y-58101317D01*
X87527580Y-58101317D02*
X87575200Y-58196555D01*
X87575200Y-58196555D02*
X87622819Y-58244174D01*
X87622819Y-58244174D02*
X87718057Y-58291793D01*
X87718057Y-58291793D02*
X87813295Y-58291793D01*
X87813295Y-58291793D02*
X87908533Y-58244174D01*
X87908533Y-58244174D02*
X87956152Y-58196555D01*
X87956152Y-58196555D02*
X88003771Y-58101317D01*
X88003771Y-58101317D02*
X88051390Y-57910841D01*
X88051390Y-57910841D02*
X88099009Y-57815603D01*
X88099009Y-57815603D02*
X88146628Y-57767984D01*
X88146628Y-57767984D02*
X88241866Y-57720365D01*
X88241866Y-57720365D02*
X88337104Y-57720365D01*
X88337104Y-57720365D02*
X88432342Y-57767984D01*
X88432342Y-57767984D02*
X88479961Y-57815603D01*
X88479961Y-57815603D02*
X88527580Y-57910841D01*
X88527580Y-57910841D02*
X88527580Y-58148936D01*
X88527580Y-58148936D02*
X88479961Y-58291793D01*
X87527580Y-58720365D02*
X88527580Y-58720365D01*
X88051390Y-58720365D02*
X88051390Y-59291793D01*
X87527580Y-59291793D02*
X88527580Y-59291793D01*
X88527580Y-59958460D02*
X88527580Y-60148936D01*
X88527580Y-60148936D02*
X88479961Y-60244174D01*
X88479961Y-60244174D02*
X88384723Y-60339412D01*
X88384723Y-60339412D02*
X88194247Y-60387031D01*
X88194247Y-60387031D02*
X87860914Y-60387031D01*
X87860914Y-60387031D02*
X87670438Y-60339412D01*
X87670438Y-60339412D02*
X87575200Y-60244174D01*
X87575200Y-60244174D02*
X87527580Y-60148936D01*
X87527580Y-60148936D02*
X87527580Y-59958460D01*
X87527580Y-59958460D02*
X87575200Y-59863222D01*
X87575200Y-59863222D02*
X87670438Y-59767984D01*
X87670438Y-59767984D02*
X87860914Y-59720365D01*
X87860914Y-59720365D02*
X88194247Y-59720365D01*
X88194247Y-59720365D02*
X88384723Y-59767984D01*
X88384723Y-59767984D02*
X88479961Y-59863222D01*
X88479961Y-59863222D02*
X88527580Y-59958460D01*
X88527580Y-60672746D02*
X88527580Y-61244174D01*
X87527580Y-60958460D02*
X88527580Y-60958460D01*
X122379961Y-57927693D02*
X122427580Y-57832455D01*
X122427580Y-57832455D02*
X122427580Y-57689598D01*
X122427580Y-57689598D02*
X122379961Y-57546741D01*
X122379961Y-57546741D02*
X122284723Y-57451503D01*
X122284723Y-57451503D02*
X122189485Y-57403884D01*
X122189485Y-57403884D02*
X121999009Y-57356265D01*
X121999009Y-57356265D02*
X121856152Y-57356265D01*
X121856152Y-57356265D02*
X121665676Y-57403884D01*
X121665676Y-57403884D02*
X121570438Y-57451503D01*
X121570438Y-57451503D02*
X121475200Y-57546741D01*
X121475200Y-57546741D02*
X121427580Y-57689598D01*
X121427580Y-57689598D02*
X121427580Y-57784836D01*
X121427580Y-57784836D02*
X121475200Y-57927693D01*
X121475200Y-57927693D02*
X121522819Y-57975312D01*
X121522819Y-57975312D02*
X121856152Y-57975312D01*
X121856152Y-57975312D02*
X121856152Y-57784836D01*
X121713295Y-58356265D02*
X121713295Y-58832455D01*
X121427580Y-58261027D02*
X122427580Y-58594360D01*
X122427580Y-58594360D02*
X121427580Y-58927693D01*
X121427580Y-59261027D02*
X122427580Y-59261027D01*
X122427580Y-59261027D02*
X121713295Y-59594360D01*
X121713295Y-59594360D02*
X122427580Y-59927693D01*
X122427580Y-59927693D02*
X121427580Y-59927693D01*
X121951390Y-60403884D02*
X121951390Y-60737217D01*
X121427580Y-60880074D02*
X121427580Y-60403884D01*
X121427580Y-60403884D02*
X122427580Y-60403884D01*
X122427580Y-60403884D02*
X122427580Y-60880074D01*
X104327580Y-57503884D02*
X105327580Y-57503884D01*
X104851390Y-57503884D02*
X104851390Y-58075312D01*
X104327580Y-58075312D02*
X105327580Y-58075312D01*
X105327580Y-58741979D02*
X105327580Y-58932455D01*
X105327580Y-58932455D02*
X105279961Y-59027693D01*
X105279961Y-59027693D02*
X105184723Y-59122931D01*
X105184723Y-59122931D02*
X104994247Y-59170550D01*
X104994247Y-59170550D02*
X104660914Y-59170550D01*
X104660914Y-59170550D02*
X104470438Y-59122931D01*
X104470438Y-59122931D02*
X104375200Y-59027693D01*
X104375200Y-59027693D02*
X104327580Y-58932455D01*
X104327580Y-58932455D02*
X104327580Y-58741979D01*
X104327580Y-58741979D02*
X104375200Y-58646741D01*
X104375200Y-58646741D02*
X104470438Y-58551503D01*
X104470438Y-58551503D02*
X104660914Y-58503884D01*
X104660914Y-58503884D02*
X104994247Y-58503884D01*
X104994247Y-58503884D02*
X105184723Y-58551503D01*
X105184723Y-58551503D02*
X105279961Y-58646741D01*
X105279961Y-58646741D02*
X105327580Y-58741979D01*
X104327580Y-59599122D02*
X105327580Y-59599122D01*
X105327580Y-59599122D02*
X104613295Y-59932455D01*
X104613295Y-59932455D02*
X105327580Y-60265788D01*
X105327580Y-60265788D02*
X104327580Y-60265788D01*
X104851390Y-60741979D02*
X104851390Y-61075312D01*
X104327580Y-61218169D02*
X104327580Y-60741979D01*
X104327580Y-60741979D02*
X105327580Y-60741979D01*
X105327580Y-60741979D02*
X105327580Y-61218169D01*
X104513295Y-89056265D02*
X104513295Y-89532455D01*
X104227580Y-88961027D02*
X105227580Y-89294360D01*
X105227580Y-89294360D02*
X104227580Y-89627693D01*
X105227580Y-89865789D02*
X104227580Y-90103884D01*
X104227580Y-90103884D02*
X104941866Y-90294360D01*
X104941866Y-90294360D02*
X104227580Y-90484836D01*
X104227580Y-90484836D02*
X105227580Y-90722932D01*
X104513295Y-91056265D02*
X104513295Y-91532455D01*
X104227580Y-90961027D02*
X105227580Y-91294360D01*
X105227580Y-91294360D02*
X104227580Y-91627693D01*
X104703771Y-92151503D02*
X104227580Y-92151503D01*
X105227580Y-91818170D02*
X104703771Y-92151503D01*
X104703771Y-92151503D02*
X105227580Y-92484836D01*
X37832455Y-147305752D02*
X37832455Y-147972419D01*
X37594360Y-146924800D02*
X37356265Y-147639085D01*
X37356265Y-147639085D02*
X37975312Y-147639085D01*
X39070550Y-146924800D02*
X38213408Y-148210514D01*
X39927693Y-147972419D02*
X39356265Y-147972419D01*
X39641979Y-147972419D02*
X39641979Y-146972419D01*
X39641979Y-146972419D02*
X39546741Y-147115276D01*
X39546741Y-147115276D02*
X39451503Y-147210514D01*
X39451503Y-147210514D02*
X39356265Y-147258133D01*
X40784836Y-146972419D02*
X40594360Y-146972419D01*
X40594360Y-146972419D02*
X40499122Y-147020038D01*
X40499122Y-147020038D02*
X40451503Y-147067657D01*
X40451503Y-147067657D02*
X40356265Y-147210514D01*
X40356265Y-147210514D02*
X40308646Y-147400990D01*
X40308646Y-147400990D02*
X40308646Y-147781942D01*
X40308646Y-147781942D02*
X40356265Y-147877180D01*
X40356265Y-147877180D02*
X40403884Y-147924800D01*
X40403884Y-147924800D02*
X40499122Y-147972419D01*
X40499122Y-147972419D02*
X40689598Y-147972419D01*
X40689598Y-147972419D02*
X40784836Y-147924800D01*
X40784836Y-147924800D02*
X40832455Y-147877180D01*
X40832455Y-147877180D02*
X40880074Y-147781942D01*
X40880074Y-147781942D02*
X40880074Y-147543847D01*
X40880074Y-147543847D02*
X40832455Y-147448609D01*
X40832455Y-147448609D02*
X40784836Y-147400990D01*
X40784836Y-147400990D02*
X40689598Y-147353371D01*
X40689598Y-147353371D02*
X40499122Y-147353371D01*
X40499122Y-147353371D02*
X40403884Y-147400990D01*
X40403884Y-147400990D02*
X40356265Y-147448609D01*
X40356265Y-147448609D02*
X40308646Y-147543847D01*
X42022931Y-146924800D02*
X41165789Y-148210514D01*
X42308646Y-147067657D02*
X42356265Y-147020038D01*
X42356265Y-147020038D02*
X42451503Y-146972419D01*
X42451503Y-146972419D02*
X42689598Y-146972419D01*
X42689598Y-146972419D02*
X42784836Y-147020038D01*
X42784836Y-147020038D02*
X42832455Y-147067657D01*
X42832455Y-147067657D02*
X42880074Y-147162895D01*
X42880074Y-147162895D02*
X42880074Y-147258133D01*
X42880074Y-147258133D02*
X42832455Y-147400990D01*
X42832455Y-147400990D02*
X42261027Y-147972419D01*
X42261027Y-147972419D02*
X42880074Y-147972419D01*
X43499122Y-146972419D02*
X43594360Y-146972419D01*
X43594360Y-146972419D02*
X43689598Y-147020038D01*
X43689598Y-147020038D02*
X43737217Y-147067657D01*
X43737217Y-147067657D02*
X43784836Y-147162895D01*
X43784836Y-147162895D02*
X43832455Y-147353371D01*
X43832455Y-147353371D02*
X43832455Y-147591466D01*
X43832455Y-147591466D02*
X43784836Y-147781942D01*
X43784836Y-147781942D02*
X43737217Y-147877180D01*
X43737217Y-147877180D02*
X43689598Y-147924800D01*
X43689598Y-147924800D02*
X43594360Y-147972419D01*
X43594360Y-147972419D02*
X43499122Y-147972419D01*
X43499122Y-147972419D02*
X43403884Y-147924800D01*
X43403884Y-147924800D02*
X43356265Y-147877180D01*
X43356265Y-147877180D02*
X43308646Y-147781942D01*
X43308646Y-147781942D02*
X43261027Y-147591466D01*
X43261027Y-147591466D02*
X43261027Y-147353371D01*
X43261027Y-147353371D02*
X43308646Y-147162895D01*
X43308646Y-147162895D02*
X43356265Y-147067657D01*
X43356265Y-147067657D02*
X43403884Y-147020038D01*
X43403884Y-147020038D02*
X43499122Y-146972419D01*
X44213408Y-147067657D02*
X44261027Y-147020038D01*
X44261027Y-147020038D02*
X44356265Y-146972419D01*
X44356265Y-146972419D02*
X44594360Y-146972419D01*
X44594360Y-146972419D02*
X44689598Y-147020038D01*
X44689598Y-147020038D02*
X44737217Y-147067657D01*
X44737217Y-147067657D02*
X44784836Y-147162895D01*
X44784836Y-147162895D02*
X44784836Y-147258133D01*
X44784836Y-147258133D02*
X44737217Y-147400990D01*
X44737217Y-147400990D02*
X44165789Y-147972419D01*
X44165789Y-147972419D02*
X44784836Y-147972419D01*
X45641979Y-146972419D02*
X45451503Y-146972419D01*
X45451503Y-146972419D02*
X45356265Y-147020038D01*
X45356265Y-147020038D02*
X45308646Y-147067657D01*
X45308646Y-147067657D02*
X45213408Y-147210514D01*
X45213408Y-147210514D02*
X45165789Y-147400990D01*
X45165789Y-147400990D02*
X45165789Y-147781942D01*
X45165789Y-147781942D02*
X45213408Y-147877180D01*
X45213408Y-147877180D02*
X45261027Y-147924800D01*
X45261027Y-147924800D02*
X45356265Y-147972419D01*
X45356265Y-147972419D02*
X45546741Y-147972419D01*
X45546741Y-147972419D02*
X45641979Y-147924800D01*
X45641979Y-147924800D02*
X45689598Y-147877180D01*
X45689598Y-147877180D02*
X45737217Y-147781942D01*
X45737217Y-147781942D02*
X45737217Y-147543847D01*
X45737217Y-147543847D02*
X45689598Y-147448609D01*
X45689598Y-147448609D02*
X45641979Y-147400990D01*
X45641979Y-147400990D02*
X45546741Y-147353371D01*
X45546741Y-147353371D02*
X45356265Y-147353371D01*
X45356265Y-147353371D02*
X45261027Y-147400990D01*
X45261027Y-147400990D02*
X45213408Y-147448609D01*
X45213408Y-147448609D02*
X45165789Y-147543847D01*
X49165790Y-147924800D02*
X49308647Y-147972419D01*
X49308647Y-147972419D02*
X49546742Y-147972419D01*
X49546742Y-147972419D02*
X49641980Y-147924800D01*
X49641980Y-147924800D02*
X49689599Y-147877180D01*
X49689599Y-147877180D02*
X49737218Y-147781942D01*
X49737218Y-147781942D02*
X49737218Y-147686704D01*
X49737218Y-147686704D02*
X49689599Y-147591466D01*
X49689599Y-147591466D02*
X49641980Y-147543847D01*
X49641980Y-147543847D02*
X49546742Y-147496228D01*
X49546742Y-147496228D02*
X49356266Y-147448609D01*
X49356266Y-147448609D02*
X49261028Y-147400990D01*
X49261028Y-147400990D02*
X49213409Y-147353371D01*
X49213409Y-147353371D02*
X49165790Y-147258133D01*
X49165790Y-147258133D02*
X49165790Y-147162895D01*
X49165790Y-147162895D02*
X49213409Y-147067657D01*
X49213409Y-147067657D02*
X49261028Y-147020038D01*
X49261028Y-147020038D02*
X49356266Y-146972419D01*
X49356266Y-146972419D02*
X49594361Y-146972419D01*
X49594361Y-146972419D02*
X49737218Y-147020038D01*
X50308647Y-147972419D02*
X50213409Y-147924800D01*
X50213409Y-147924800D02*
X50165790Y-147877180D01*
X50165790Y-147877180D02*
X50118171Y-147781942D01*
X50118171Y-147781942D02*
X50118171Y-147496228D01*
X50118171Y-147496228D02*
X50165790Y-147400990D01*
X50165790Y-147400990D02*
X50213409Y-147353371D01*
X50213409Y-147353371D02*
X50308647Y-147305752D01*
X50308647Y-147305752D02*
X50451504Y-147305752D01*
X50451504Y-147305752D02*
X50546742Y-147353371D01*
X50546742Y-147353371D02*
X50594361Y-147400990D01*
X50594361Y-147400990D02*
X50641980Y-147496228D01*
X50641980Y-147496228D02*
X50641980Y-147781942D01*
X50641980Y-147781942D02*
X50594361Y-147877180D01*
X50594361Y-147877180D02*
X50546742Y-147924800D01*
X50546742Y-147924800D02*
X50451504Y-147972419D01*
X50451504Y-147972419D02*
X50308647Y-147972419D01*
X51641980Y-147877180D02*
X51594361Y-147924800D01*
X51594361Y-147924800D02*
X51451504Y-147972419D01*
X51451504Y-147972419D02*
X51356266Y-147972419D01*
X51356266Y-147972419D02*
X51213409Y-147924800D01*
X51213409Y-147924800D02*
X51118171Y-147829561D01*
X51118171Y-147829561D02*
X51070552Y-147734323D01*
X51070552Y-147734323D02*
X51022933Y-147543847D01*
X51022933Y-147543847D02*
X51022933Y-147400990D01*
X51022933Y-147400990D02*
X51070552Y-147210514D01*
X51070552Y-147210514D02*
X51118171Y-147115276D01*
X51118171Y-147115276D02*
X51213409Y-147020038D01*
X51213409Y-147020038D02*
X51356266Y-146972419D01*
X51356266Y-146972419D02*
X51451504Y-146972419D01*
X51451504Y-146972419D02*
X51594361Y-147020038D01*
X51594361Y-147020038D02*
X51641980Y-147067657D01*
X52070552Y-147448609D02*
X52403885Y-147448609D01*
X52546742Y-147972419D02*
X52070552Y-147972419D01*
X52070552Y-147972419D02*
X52070552Y-146972419D01*
X52070552Y-146972419D02*
X52546742Y-146972419D01*
X52832457Y-146972419D02*
X53403885Y-146972419D01*
X53118171Y-147972419D02*
X53118171Y-146972419D01*
X54499124Y-147972419D02*
X54499124Y-146972419D01*
X54975314Y-147305752D02*
X54975314Y-147972419D01*
X54975314Y-147400990D02*
X55022933Y-147353371D01*
X55022933Y-147353371D02*
X55118171Y-147305752D01*
X55118171Y-147305752D02*
X55261028Y-147305752D01*
X55261028Y-147305752D02*
X55356266Y-147353371D01*
X55356266Y-147353371D02*
X55403885Y-147448609D01*
X55403885Y-147448609D02*
X55403885Y-147972419D01*
X55737219Y-147305752D02*
X56118171Y-147305752D01*
X55880076Y-146972419D02*
X55880076Y-147829561D01*
X55880076Y-147829561D02*
X55927695Y-147924800D01*
X55927695Y-147924800D02*
X56022933Y-147972419D01*
X56022933Y-147972419D02*
X56118171Y-147972419D01*
X56451505Y-147972419D02*
X56451505Y-147305752D01*
X56451505Y-147496228D02*
X56499124Y-147400990D01*
X56499124Y-147400990D02*
X56546743Y-147353371D01*
X56546743Y-147353371D02*
X56641981Y-147305752D01*
X56641981Y-147305752D02*
X56737219Y-147305752D01*
X57213410Y-147972419D02*
X57118172Y-147924800D01*
X57118172Y-147924800D02*
X57070553Y-147877180D01*
X57070553Y-147877180D02*
X57022934Y-147781942D01*
X57022934Y-147781942D02*
X57022934Y-147496228D01*
X57022934Y-147496228D02*
X57070553Y-147400990D01*
X57070553Y-147400990D02*
X57118172Y-147353371D01*
X57118172Y-147353371D02*
X57213410Y-147305752D01*
X57213410Y-147305752D02*
X57356267Y-147305752D01*
X57356267Y-147305752D02*
X57451505Y-147353371D01*
X57451505Y-147353371D02*
X57499124Y-147400990D01*
X57499124Y-147400990D02*
X57546743Y-147496228D01*
X57546743Y-147496228D02*
X57546743Y-147781942D01*
X57546743Y-147781942D02*
X57499124Y-147877180D01*
X57499124Y-147877180D02*
X57451505Y-147924800D01*
X57451505Y-147924800D02*
X57356267Y-147972419D01*
X57356267Y-147972419D02*
X57213410Y-147972419D01*
X59261029Y-147972419D02*
X58689601Y-147972419D01*
X58975315Y-147972419D02*
X58975315Y-146972419D01*
X58975315Y-146972419D02*
X58880077Y-147115276D01*
X58880077Y-147115276D02*
X58784839Y-147210514D01*
X58784839Y-147210514D02*
X58689601Y-147258133D01*
X62594364Y-146972419D02*
X63165792Y-146972419D01*
X62880078Y-147972419D02*
X62880078Y-146972419D01*
X63880078Y-147924800D02*
X63784840Y-147972419D01*
X63784840Y-147972419D02*
X63594364Y-147972419D01*
X63594364Y-147972419D02*
X63499126Y-147924800D01*
X63499126Y-147924800D02*
X63451507Y-147829561D01*
X63451507Y-147829561D02*
X63451507Y-147448609D01*
X63451507Y-147448609D02*
X63499126Y-147353371D01*
X63499126Y-147353371D02*
X63594364Y-147305752D01*
X63594364Y-147305752D02*
X63784840Y-147305752D01*
X63784840Y-147305752D02*
X63880078Y-147353371D01*
X63880078Y-147353371D02*
X63927697Y-147448609D01*
X63927697Y-147448609D02*
X63927697Y-147543847D01*
X63927697Y-147543847D02*
X63451507Y-147639085D01*
X64784840Y-147972419D02*
X64784840Y-147448609D01*
X64784840Y-147448609D02*
X64737221Y-147353371D01*
X64737221Y-147353371D02*
X64641983Y-147305752D01*
X64641983Y-147305752D02*
X64451507Y-147305752D01*
X64451507Y-147305752D02*
X64356269Y-147353371D01*
X64784840Y-147924800D02*
X64689602Y-147972419D01*
X64689602Y-147972419D02*
X64451507Y-147972419D01*
X64451507Y-147972419D02*
X64356269Y-147924800D01*
X64356269Y-147924800D02*
X64308650Y-147829561D01*
X64308650Y-147829561D02*
X64308650Y-147734323D01*
X64308650Y-147734323D02*
X64356269Y-147639085D01*
X64356269Y-147639085D02*
X64451507Y-147591466D01*
X64451507Y-147591466D02*
X64689602Y-147591466D01*
X64689602Y-147591466D02*
X64784840Y-147543847D01*
X65261031Y-147972419D02*
X65261031Y-147305752D01*
X65261031Y-147400990D02*
X65308650Y-147353371D01*
X65308650Y-147353371D02*
X65403888Y-147305752D01*
X65403888Y-147305752D02*
X65546745Y-147305752D01*
X65546745Y-147305752D02*
X65641983Y-147353371D01*
X65641983Y-147353371D02*
X65689602Y-147448609D01*
X65689602Y-147448609D02*
X65689602Y-147972419D01*
X65689602Y-147448609D02*
X65737221Y-147353371D01*
X65737221Y-147353371D02*
X65832459Y-147305752D01*
X65832459Y-147305752D02*
X65975316Y-147305752D01*
X65975316Y-147305752D02*
X66070555Y-147353371D01*
X66070555Y-147353371D02*
X66118174Y-147448609D01*
X66118174Y-147448609D02*
X66118174Y-147972419D01*
X67880078Y-147972419D02*
X67308650Y-147972419D01*
X67594364Y-147972419D02*
X67594364Y-146972419D01*
X67594364Y-146972419D02*
X67499126Y-147115276D01*
X67499126Y-147115276D02*
X67403888Y-147210514D01*
X67403888Y-147210514D02*
X67308650Y-147258133D01*
X68737221Y-147305752D02*
X68737221Y-147972419D01*
X68499126Y-146924800D02*
X68261031Y-147639085D01*
X68261031Y-147639085D02*
X68880078Y-147639085D01*
D11*
X56257200Y-59700231D02*
X56304819Y-59557374D01*
X56304819Y-59557374D02*
X56304819Y-59319279D01*
X56304819Y-59319279D02*
X56257200Y-59224041D01*
X56257200Y-59224041D02*
X56209580Y-59176422D01*
X56209580Y-59176422D02*
X56114342Y-59128803D01*
X56114342Y-59128803D02*
X56019104Y-59128803D01*
X56019104Y-59128803D02*
X55923866Y-59176422D01*
X55923866Y-59176422D02*
X55876247Y-59224041D01*
X55876247Y-59224041D02*
X55828628Y-59319279D01*
X55828628Y-59319279D02*
X55781009Y-59509755D01*
X55781009Y-59509755D02*
X55733390Y-59604993D01*
X55733390Y-59604993D02*
X55685771Y-59652612D01*
X55685771Y-59652612D02*
X55590533Y-59700231D01*
X55590533Y-59700231D02*
X55495295Y-59700231D01*
X55495295Y-59700231D02*
X55400057Y-59652612D01*
X55400057Y-59652612D02*
X55352438Y-59604993D01*
X55352438Y-59604993D02*
X55304819Y-59509755D01*
X55304819Y-59509755D02*
X55304819Y-59271660D01*
X55304819Y-59271660D02*
X55352438Y-59128803D01*
X55304819Y-58795469D02*
X56304819Y-58557374D01*
X56304819Y-58557374D02*
X55590533Y-58366898D01*
X55590533Y-58366898D02*
X56304819Y-58176422D01*
X56304819Y-58176422D02*
X55304819Y-57938327D01*
X55304819Y-57128803D02*
X55304819Y-57319279D01*
X55304819Y-57319279D02*
X55352438Y-57414517D01*
X55352438Y-57414517D02*
X55400057Y-57462136D01*
X55400057Y-57462136D02*
X55542914Y-57557374D01*
X55542914Y-57557374D02*
X55733390Y-57604993D01*
X55733390Y-57604993D02*
X56114342Y-57604993D01*
X56114342Y-57604993D02*
X56209580Y-57557374D01*
X56209580Y-57557374D02*
X56257200Y-57509755D01*
X56257200Y-57509755D02*
X56304819Y-57414517D01*
X56304819Y-57414517D02*
X56304819Y-57224041D01*
X56304819Y-57224041D02*
X56257200Y-57128803D01*
X56257200Y-57128803D02*
X56209580Y-57081184D01*
X56209580Y-57081184D02*
X56114342Y-57033565D01*
X56114342Y-57033565D02*
X55876247Y-57033565D01*
X55876247Y-57033565D02*
X55781009Y-57081184D01*
X55781009Y-57081184D02*
X55733390Y-57128803D01*
X55733390Y-57128803D02*
X55685771Y-57224041D01*
X55685771Y-57224041D02*
X55685771Y-57414517D01*
X55685771Y-57414517D02*
X55733390Y-57509755D01*
X55733390Y-57509755D02*
X55781009Y-57557374D01*
X55781009Y-57557374D02*
X55876247Y-57604993D01*
X55559580Y-65166666D02*
X55607200Y-65214285D01*
X55607200Y-65214285D02*
X55654819Y-65357142D01*
X55654819Y-65357142D02*
X55654819Y-65452380D01*
X55654819Y-65452380D02*
X55607200Y-65595237D01*
X55607200Y-65595237D02*
X55511961Y-65690475D01*
X55511961Y-65690475D02*
X55416723Y-65738094D01*
X55416723Y-65738094D02*
X55226247Y-65785713D01*
X55226247Y-65785713D02*
X55083390Y-65785713D01*
X55083390Y-65785713D02*
X54892914Y-65738094D01*
X54892914Y-65738094D02*
X54797676Y-65690475D01*
X54797676Y-65690475D02*
X54702438Y-65595237D01*
X54702438Y-65595237D02*
X54654819Y-65452380D01*
X54654819Y-65452380D02*
X54654819Y-65357142D01*
X54654819Y-65357142D02*
X54702438Y-65214285D01*
X54702438Y-65214285D02*
X54750057Y-65166666D01*
X54654819Y-64309523D02*
X54654819Y-64499999D01*
X54654819Y-64499999D02*
X54702438Y-64595237D01*
X54702438Y-64595237D02*
X54750057Y-64642856D01*
X54750057Y-64642856D02*
X54892914Y-64738094D01*
X54892914Y-64738094D02*
X55083390Y-64785713D01*
X55083390Y-64785713D02*
X55464342Y-64785713D01*
X55464342Y-64785713D02*
X55559580Y-64738094D01*
X55559580Y-64738094D02*
X55607200Y-64690475D01*
X55607200Y-64690475D02*
X55654819Y-64595237D01*
X55654819Y-64595237D02*
X55654819Y-64404761D01*
X55654819Y-64404761D02*
X55607200Y-64309523D01*
X55607200Y-64309523D02*
X55559580Y-64261904D01*
X55559580Y-64261904D02*
X55464342Y-64214285D01*
X55464342Y-64214285D02*
X55226247Y-64214285D01*
X55226247Y-64214285D02*
X55131009Y-64261904D01*
X55131009Y-64261904D02*
X55083390Y-64309523D01*
X55083390Y-64309523D02*
X55035771Y-64404761D01*
X55035771Y-64404761D02*
X55035771Y-64595237D01*
X55035771Y-64595237D02*
X55083390Y-64690475D01*
X55083390Y-64690475D02*
X55131009Y-64738094D01*
X55131009Y-64738094D02*
X55226247Y-64785713D01*
X65129419Y-68438365D02*
X64653228Y-68771698D01*
X65129419Y-69009793D02*
X64129419Y-69009793D01*
X64129419Y-69009793D02*
X64129419Y-68628841D01*
X64129419Y-68628841D02*
X64177038Y-68533603D01*
X64177038Y-68533603D02*
X64224657Y-68485984D01*
X64224657Y-68485984D02*
X64319895Y-68438365D01*
X64319895Y-68438365D02*
X64462752Y-68438365D01*
X64462752Y-68438365D02*
X64557990Y-68485984D01*
X64557990Y-68485984D02*
X64605609Y-68533603D01*
X64605609Y-68533603D02*
X64653228Y-68628841D01*
X64653228Y-68628841D02*
X64653228Y-69009793D01*
X64129419Y-67581222D02*
X64129419Y-67771698D01*
X64129419Y-67771698D02*
X64177038Y-67866936D01*
X64177038Y-67866936D02*
X64224657Y-67914555D01*
X64224657Y-67914555D02*
X64367514Y-68009793D01*
X64367514Y-68009793D02*
X64557990Y-68057412D01*
X64557990Y-68057412D02*
X64938942Y-68057412D01*
X64938942Y-68057412D02*
X65034180Y-68009793D01*
X65034180Y-68009793D02*
X65081800Y-67962174D01*
X65081800Y-67962174D02*
X65129419Y-67866936D01*
X65129419Y-67866936D02*
X65129419Y-67676460D01*
X65129419Y-67676460D02*
X65081800Y-67581222D01*
X65081800Y-67581222D02*
X65034180Y-67533603D01*
X65034180Y-67533603D02*
X64938942Y-67485984D01*
X64938942Y-67485984D02*
X64700847Y-67485984D01*
X64700847Y-67485984D02*
X64605609Y-67533603D01*
X64605609Y-67533603D02*
X64557990Y-67581222D01*
X64557990Y-67581222D02*
X64510371Y-67676460D01*
X64510371Y-67676460D02*
X64510371Y-67866936D01*
X64510371Y-67866936D02*
X64557990Y-67962174D01*
X64557990Y-67962174D02*
X64605609Y-68009793D01*
X64605609Y-68009793D02*
X64700847Y-68057412D01*
X120642919Y-138055304D02*
X121452442Y-138055304D01*
X121452442Y-138055304D02*
X121547680Y-138007685D01*
X121547680Y-138007685D02*
X121595300Y-137960066D01*
X121595300Y-137960066D02*
X121642919Y-137864828D01*
X121642919Y-137864828D02*
X121642919Y-137674352D01*
X121642919Y-137674352D02*
X121595300Y-137579114D01*
X121595300Y-137579114D02*
X121547680Y-137531495D01*
X121547680Y-137531495D02*
X121452442Y-137483876D01*
X121452442Y-137483876D02*
X120642919Y-137483876D01*
X121642919Y-136483876D02*
X121642919Y-137055304D01*
X121642919Y-136769590D02*
X120642919Y-136769590D01*
X120642919Y-136769590D02*
X120785776Y-136864828D01*
X120785776Y-136864828D02*
X120881014Y-136960066D01*
X120881014Y-136960066D02*
X120928633Y-137055304D01*
X54661905Y-89554819D02*
X54661905Y-88554819D01*
X54661905Y-88554819D02*
X54900000Y-88554819D01*
X54900000Y-88554819D02*
X55042857Y-88602438D01*
X55042857Y-88602438D02*
X55138095Y-88697676D01*
X55138095Y-88697676D02*
X55185714Y-88792914D01*
X55185714Y-88792914D02*
X55233333Y-88983390D01*
X55233333Y-88983390D02*
X55233333Y-89126247D01*
X55233333Y-89126247D02*
X55185714Y-89316723D01*
X55185714Y-89316723D02*
X55138095Y-89411961D01*
X55138095Y-89411961D02*
X55042857Y-89507200D01*
X55042857Y-89507200D02*
X54900000Y-89554819D01*
X54900000Y-89554819D02*
X54661905Y-89554819D01*
X55614286Y-88650057D02*
X55661905Y-88602438D01*
X55661905Y-88602438D02*
X55757143Y-88554819D01*
X55757143Y-88554819D02*
X55995238Y-88554819D01*
X55995238Y-88554819D02*
X56090476Y-88602438D01*
X56090476Y-88602438D02*
X56138095Y-88650057D01*
X56138095Y-88650057D02*
X56185714Y-88745295D01*
X56185714Y-88745295D02*
X56185714Y-88840533D01*
X56185714Y-88840533D02*
X56138095Y-88983390D01*
X56138095Y-88983390D02*
X55566667Y-89554819D01*
X55566667Y-89554819D02*
X56185714Y-89554819D01*
X96242142Y-134159580D02*
X96194523Y-134207200D01*
X96194523Y-134207200D02*
X96051666Y-134254819D01*
X96051666Y-134254819D02*
X95956428Y-134254819D01*
X95956428Y-134254819D02*
X95813571Y-134207200D01*
X95813571Y-134207200D02*
X95718333Y-134111961D01*
X95718333Y-134111961D02*
X95670714Y-134016723D01*
X95670714Y-134016723D02*
X95623095Y-133826247D01*
X95623095Y-133826247D02*
X95623095Y-133683390D01*
X95623095Y-133683390D02*
X95670714Y-133492914D01*
X95670714Y-133492914D02*
X95718333Y-133397676D01*
X95718333Y-133397676D02*
X95813571Y-133302438D01*
X95813571Y-133302438D02*
X95956428Y-133254819D01*
X95956428Y-133254819D02*
X96051666Y-133254819D01*
X96051666Y-133254819D02*
X96194523Y-133302438D01*
X96194523Y-133302438D02*
X96242142Y-133350057D01*
X97194523Y-134254819D02*
X96623095Y-134254819D01*
X96908809Y-134254819D02*
X96908809Y-133254819D01*
X96908809Y-133254819D02*
X96813571Y-133397676D01*
X96813571Y-133397676D02*
X96718333Y-133492914D01*
X96718333Y-133492914D02*
X96623095Y-133540533D01*
X97813571Y-133254819D02*
X97908809Y-133254819D01*
X97908809Y-133254819D02*
X98004047Y-133302438D01*
X98004047Y-133302438D02*
X98051666Y-133350057D01*
X98051666Y-133350057D02*
X98099285Y-133445295D01*
X98099285Y-133445295D02*
X98146904Y-133635771D01*
X98146904Y-133635771D02*
X98146904Y-133873866D01*
X98146904Y-133873866D02*
X98099285Y-134064342D01*
X98099285Y-134064342D02*
X98051666Y-134159580D01*
X98051666Y-134159580D02*
X98004047Y-134207200D01*
X98004047Y-134207200D02*
X97908809Y-134254819D01*
X97908809Y-134254819D02*
X97813571Y-134254819D01*
X97813571Y-134254819D02*
X97718333Y-134207200D01*
X97718333Y-134207200D02*
X97670714Y-134159580D01*
X97670714Y-134159580D02*
X97623095Y-134064342D01*
X97623095Y-134064342D02*
X97575476Y-133873866D01*
X97575476Y-133873866D02*
X97575476Y-133635771D01*
X97575476Y-133635771D02*
X97623095Y-133445295D01*
X97623095Y-133445295D02*
X97670714Y-133350057D01*
X97670714Y-133350057D02*
X97718333Y-133302438D01*
X97718333Y-133302438D02*
X97813571Y-133254819D01*
X101223095Y-129744819D02*
X101223095Y-130554342D01*
X101223095Y-130554342D02*
X101270714Y-130649580D01*
X101270714Y-130649580D02*
X101318333Y-130697200D01*
X101318333Y-130697200D02*
X101413571Y-130744819D01*
X101413571Y-130744819D02*
X101604047Y-130744819D01*
X101604047Y-130744819D02*
X101699285Y-130697200D01*
X101699285Y-130697200D02*
X101746904Y-130649580D01*
X101746904Y-130649580D02*
X101794523Y-130554342D01*
X101794523Y-130554342D02*
X101794523Y-129744819D01*
X102699285Y-130078152D02*
X102699285Y-130744819D01*
X102461190Y-129697200D02*
X102223095Y-130411485D01*
X102223095Y-130411485D02*
X102842142Y-130411485D01*
X119343095Y-129794819D02*
X119343095Y-130604342D01*
X119343095Y-130604342D02*
X119390714Y-130699580D01*
X119390714Y-130699580D02*
X119438333Y-130747200D01*
X119438333Y-130747200D02*
X119533571Y-130794819D01*
X119533571Y-130794819D02*
X119724047Y-130794819D01*
X119724047Y-130794819D02*
X119819285Y-130747200D01*
X119819285Y-130747200D02*
X119866904Y-130699580D01*
X119866904Y-130699580D02*
X119914523Y-130604342D01*
X119914523Y-130604342D02*
X119914523Y-129794819D01*
X120295476Y-129794819D02*
X120914523Y-129794819D01*
X120914523Y-129794819D02*
X120581190Y-130175771D01*
X120581190Y-130175771D02*
X120724047Y-130175771D01*
X120724047Y-130175771D02*
X120819285Y-130223390D01*
X120819285Y-130223390D02*
X120866904Y-130271009D01*
X120866904Y-130271009D02*
X120914523Y-130366247D01*
X120914523Y-130366247D02*
X120914523Y-130604342D01*
X120914523Y-130604342D02*
X120866904Y-130699580D01*
X120866904Y-130699580D02*
X120819285Y-130747200D01*
X120819285Y-130747200D02*
X120724047Y-130794819D01*
X120724047Y-130794819D02*
X120438333Y-130794819D01*
X120438333Y-130794819D02*
X120343095Y-130747200D01*
X120343095Y-130747200D02*
X120295476Y-130699580D01*
X114938333Y-134199580D02*
X114890714Y-134247200D01*
X114890714Y-134247200D02*
X114747857Y-134294819D01*
X114747857Y-134294819D02*
X114652619Y-134294819D01*
X114652619Y-134294819D02*
X114509762Y-134247200D01*
X114509762Y-134247200D02*
X114414524Y-134151961D01*
X114414524Y-134151961D02*
X114366905Y-134056723D01*
X114366905Y-134056723D02*
X114319286Y-133866247D01*
X114319286Y-133866247D02*
X114319286Y-133723390D01*
X114319286Y-133723390D02*
X114366905Y-133532914D01*
X114366905Y-133532914D02*
X114414524Y-133437676D01*
X114414524Y-133437676D02*
X114509762Y-133342438D01*
X114509762Y-133342438D02*
X114652619Y-133294819D01*
X114652619Y-133294819D02*
X114747857Y-133294819D01*
X114747857Y-133294819D02*
X114890714Y-133342438D01*
X114890714Y-133342438D02*
X114938333Y-133390057D01*
X115414524Y-134294819D02*
X115605000Y-134294819D01*
X115605000Y-134294819D02*
X115700238Y-134247200D01*
X115700238Y-134247200D02*
X115747857Y-134199580D01*
X115747857Y-134199580D02*
X115843095Y-134056723D01*
X115843095Y-134056723D02*
X115890714Y-133866247D01*
X115890714Y-133866247D02*
X115890714Y-133485295D01*
X115890714Y-133485295D02*
X115843095Y-133390057D01*
X115843095Y-133390057D02*
X115795476Y-133342438D01*
X115795476Y-133342438D02*
X115700238Y-133294819D01*
X115700238Y-133294819D02*
X115509762Y-133294819D01*
X115509762Y-133294819D02*
X115414524Y-133342438D01*
X115414524Y-133342438D02*
X115366905Y-133390057D01*
X115366905Y-133390057D02*
X115319286Y-133485295D01*
X115319286Y-133485295D02*
X115319286Y-133723390D01*
X115319286Y-133723390D02*
X115366905Y-133818628D01*
X115366905Y-133818628D02*
X115414524Y-133866247D01*
X115414524Y-133866247D02*
X115509762Y-133913866D01*
X115509762Y-133913866D02*
X115700238Y-133913866D01*
X115700238Y-133913866D02*
X115795476Y-133866247D01*
X115795476Y-133866247D02*
X115843095Y-133818628D01*
X115843095Y-133818628D02*
X115890714Y-133723390D01*
X48933333Y-74217580D02*
X48885714Y-74265200D01*
X48885714Y-74265200D02*
X48742857Y-74312819D01*
X48742857Y-74312819D02*
X48647619Y-74312819D01*
X48647619Y-74312819D02*
X48504762Y-74265200D01*
X48504762Y-74265200D02*
X48409524Y-74169961D01*
X48409524Y-74169961D02*
X48361905Y-74074723D01*
X48361905Y-74074723D02*
X48314286Y-73884247D01*
X48314286Y-73884247D02*
X48314286Y-73741390D01*
X48314286Y-73741390D02*
X48361905Y-73550914D01*
X48361905Y-73550914D02*
X48409524Y-73455676D01*
X48409524Y-73455676D02*
X48504762Y-73360438D01*
X48504762Y-73360438D02*
X48647619Y-73312819D01*
X48647619Y-73312819D02*
X48742857Y-73312819D01*
X48742857Y-73312819D02*
X48885714Y-73360438D01*
X48885714Y-73360438D02*
X48933333Y-73408057D01*
X49266667Y-73312819D02*
X49885714Y-73312819D01*
X49885714Y-73312819D02*
X49552381Y-73693771D01*
X49552381Y-73693771D02*
X49695238Y-73693771D01*
X49695238Y-73693771D02*
X49790476Y-73741390D01*
X49790476Y-73741390D02*
X49838095Y-73789009D01*
X49838095Y-73789009D02*
X49885714Y-73884247D01*
X49885714Y-73884247D02*
X49885714Y-74122342D01*
X49885714Y-74122342D02*
X49838095Y-74217580D01*
X49838095Y-74217580D02*
X49790476Y-74265200D01*
X49790476Y-74265200D02*
X49695238Y-74312819D01*
X49695238Y-74312819D02*
X49409524Y-74312819D01*
X49409524Y-74312819D02*
X49314286Y-74265200D01*
X49314286Y-74265200D02*
X49266667Y-74217580D01*
X48733333Y-57359580D02*
X48685714Y-57407200D01*
X48685714Y-57407200D02*
X48542857Y-57454819D01*
X48542857Y-57454819D02*
X48447619Y-57454819D01*
X48447619Y-57454819D02*
X48304762Y-57407200D01*
X48304762Y-57407200D02*
X48209524Y-57311961D01*
X48209524Y-57311961D02*
X48161905Y-57216723D01*
X48161905Y-57216723D02*
X48114286Y-57026247D01*
X48114286Y-57026247D02*
X48114286Y-56883390D01*
X48114286Y-56883390D02*
X48161905Y-56692914D01*
X48161905Y-56692914D02*
X48209524Y-56597676D01*
X48209524Y-56597676D02*
X48304762Y-56502438D01*
X48304762Y-56502438D02*
X48447619Y-56454819D01*
X48447619Y-56454819D02*
X48542857Y-56454819D01*
X48542857Y-56454819D02*
X48685714Y-56502438D01*
X48685714Y-56502438D02*
X48733333Y-56550057D01*
X49685714Y-57454819D02*
X49114286Y-57454819D01*
X49400000Y-57454819D02*
X49400000Y-56454819D01*
X49400000Y-56454819D02*
X49304762Y-56597676D01*
X49304762Y-56597676D02*
X49209524Y-56692914D01*
X49209524Y-56692914D02*
X49114286Y-56740533D01*
X52133333Y-65984819D02*
X51800000Y-65508628D01*
X51561905Y-65984819D02*
X51561905Y-64984819D01*
X51561905Y-64984819D02*
X51942857Y-64984819D01*
X51942857Y-64984819D02*
X52038095Y-65032438D01*
X52038095Y-65032438D02*
X52085714Y-65080057D01*
X52085714Y-65080057D02*
X52133333Y-65175295D01*
X52133333Y-65175295D02*
X52133333Y-65318152D01*
X52133333Y-65318152D02*
X52085714Y-65413390D01*
X52085714Y-65413390D02*
X52038095Y-65461009D01*
X52038095Y-65461009D02*
X51942857Y-65508628D01*
X51942857Y-65508628D02*
X51561905Y-65508628D01*
X52514286Y-65080057D02*
X52561905Y-65032438D01*
X52561905Y-65032438D02*
X52657143Y-64984819D01*
X52657143Y-64984819D02*
X52895238Y-64984819D01*
X52895238Y-64984819D02*
X52990476Y-65032438D01*
X52990476Y-65032438D02*
X53038095Y-65080057D01*
X53038095Y-65080057D02*
X53085714Y-65175295D01*
X53085714Y-65175295D02*
X53085714Y-65270533D01*
X53085714Y-65270533D02*
X53038095Y-65413390D01*
X53038095Y-65413390D02*
X52466667Y-65984819D01*
X52466667Y-65984819D02*
X53085714Y-65984819D01*
X48733333Y-65843173D02*
X48685714Y-65890793D01*
X48685714Y-65890793D02*
X48542857Y-65938412D01*
X48542857Y-65938412D02*
X48447619Y-65938412D01*
X48447619Y-65938412D02*
X48304762Y-65890793D01*
X48304762Y-65890793D02*
X48209524Y-65795554D01*
X48209524Y-65795554D02*
X48161905Y-65700316D01*
X48161905Y-65700316D02*
X48114286Y-65509840D01*
X48114286Y-65509840D02*
X48114286Y-65366983D01*
X48114286Y-65366983D02*
X48161905Y-65176507D01*
X48161905Y-65176507D02*
X48209524Y-65081269D01*
X48209524Y-65081269D02*
X48304762Y-64986031D01*
X48304762Y-64986031D02*
X48447619Y-64938412D01*
X48447619Y-64938412D02*
X48542857Y-64938412D01*
X48542857Y-64938412D02*
X48685714Y-64986031D01*
X48685714Y-64986031D02*
X48733333Y-65033650D01*
X49114286Y-65033650D02*
X49161905Y-64986031D01*
X49161905Y-64986031D02*
X49257143Y-64938412D01*
X49257143Y-64938412D02*
X49495238Y-64938412D01*
X49495238Y-64938412D02*
X49590476Y-64986031D01*
X49590476Y-64986031D02*
X49638095Y-65033650D01*
X49638095Y-65033650D02*
X49685714Y-65128888D01*
X49685714Y-65128888D02*
X49685714Y-65224126D01*
X49685714Y-65224126D02*
X49638095Y-65366983D01*
X49638095Y-65366983D02*
X49066667Y-65938412D01*
X49066667Y-65938412D02*
X49685714Y-65938412D01*
X52233333Y-74442819D02*
X51900000Y-73966628D01*
X51661905Y-74442819D02*
X51661905Y-73442819D01*
X51661905Y-73442819D02*
X52042857Y-73442819D01*
X52042857Y-73442819D02*
X52138095Y-73490438D01*
X52138095Y-73490438D02*
X52185714Y-73538057D01*
X52185714Y-73538057D02*
X52233333Y-73633295D01*
X52233333Y-73633295D02*
X52233333Y-73776152D01*
X52233333Y-73776152D02*
X52185714Y-73871390D01*
X52185714Y-73871390D02*
X52138095Y-73919009D01*
X52138095Y-73919009D02*
X52042857Y-73966628D01*
X52042857Y-73966628D02*
X51661905Y-73966628D01*
X52566667Y-73442819D02*
X53185714Y-73442819D01*
X53185714Y-73442819D02*
X52852381Y-73823771D01*
X52852381Y-73823771D02*
X52995238Y-73823771D01*
X52995238Y-73823771D02*
X53090476Y-73871390D01*
X53090476Y-73871390D02*
X53138095Y-73919009D01*
X53138095Y-73919009D02*
X53185714Y-74014247D01*
X53185714Y-74014247D02*
X53185714Y-74252342D01*
X53185714Y-74252342D02*
X53138095Y-74347580D01*
X53138095Y-74347580D02*
X53090476Y-74395200D01*
X53090476Y-74395200D02*
X52995238Y-74442819D01*
X52995238Y-74442819D02*
X52709524Y-74442819D01*
X52709524Y-74442819D02*
X52614286Y-74395200D01*
X52614286Y-74395200D02*
X52566667Y-74347580D01*
X38966667Y-87257200D02*
X39109524Y-87304819D01*
X39109524Y-87304819D02*
X39347619Y-87304819D01*
X39347619Y-87304819D02*
X39442857Y-87257200D01*
X39442857Y-87257200D02*
X39490476Y-87209580D01*
X39490476Y-87209580D02*
X39538095Y-87114342D01*
X39538095Y-87114342D02*
X39538095Y-87019104D01*
X39538095Y-87019104D02*
X39490476Y-86923866D01*
X39490476Y-86923866D02*
X39442857Y-86876247D01*
X39442857Y-86876247D02*
X39347619Y-86828628D01*
X39347619Y-86828628D02*
X39157143Y-86781009D01*
X39157143Y-86781009D02*
X39061905Y-86733390D01*
X39061905Y-86733390D02*
X39014286Y-86685771D01*
X39014286Y-86685771D02*
X38966667Y-86590533D01*
X38966667Y-86590533D02*
X38966667Y-86495295D01*
X38966667Y-86495295D02*
X39014286Y-86400057D01*
X39014286Y-86400057D02*
X39061905Y-86352438D01*
X39061905Y-86352438D02*
X39157143Y-86304819D01*
X39157143Y-86304819D02*
X39395238Y-86304819D01*
X39395238Y-86304819D02*
X39538095Y-86352438D01*
X39871429Y-86304819D02*
X40109524Y-87304819D01*
X40109524Y-87304819D02*
X40300000Y-86590533D01*
X40300000Y-86590533D02*
X40490476Y-87304819D01*
X40490476Y-87304819D02*
X40728572Y-86304819D01*
X41585714Y-86304819D02*
X41109524Y-86304819D01*
X41109524Y-86304819D02*
X41061905Y-86781009D01*
X41061905Y-86781009D02*
X41109524Y-86733390D01*
X41109524Y-86733390D02*
X41204762Y-86685771D01*
X41204762Y-86685771D02*
X41442857Y-86685771D01*
X41442857Y-86685771D02*
X41538095Y-86733390D01*
X41538095Y-86733390D02*
X41585714Y-86781009D01*
X41585714Y-86781009D02*
X41633333Y-86876247D01*
X41633333Y-86876247D02*
X41633333Y-87114342D01*
X41633333Y-87114342D02*
X41585714Y-87209580D01*
X41585714Y-87209580D02*
X41538095Y-87257200D01*
X41538095Y-87257200D02*
X41442857Y-87304819D01*
X41442857Y-87304819D02*
X41204762Y-87304819D01*
X41204762Y-87304819D02*
X41109524Y-87257200D01*
X41109524Y-87257200D02*
X41061905Y-87209580D01*
X38966667Y-78707200D02*
X39109524Y-78754819D01*
X39109524Y-78754819D02*
X39347619Y-78754819D01*
X39347619Y-78754819D02*
X39442857Y-78707200D01*
X39442857Y-78707200D02*
X39490476Y-78659580D01*
X39490476Y-78659580D02*
X39538095Y-78564342D01*
X39538095Y-78564342D02*
X39538095Y-78469104D01*
X39538095Y-78469104D02*
X39490476Y-78373866D01*
X39490476Y-78373866D02*
X39442857Y-78326247D01*
X39442857Y-78326247D02*
X39347619Y-78278628D01*
X39347619Y-78278628D02*
X39157143Y-78231009D01*
X39157143Y-78231009D02*
X39061905Y-78183390D01*
X39061905Y-78183390D02*
X39014286Y-78135771D01*
X39014286Y-78135771D02*
X38966667Y-78040533D01*
X38966667Y-78040533D02*
X38966667Y-77945295D01*
X38966667Y-77945295D02*
X39014286Y-77850057D01*
X39014286Y-77850057D02*
X39061905Y-77802438D01*
X39061905Y-77802438D02*
X39157143Y-77754819D01*
X39157143Y-77754819D02*
X39395238Y-77754819D01*
X39395238Y-77754819D02*
X39538095Y-77802438D01*
X39871429Y-77754819D02*
X40109524Y-78754819D01*
X40109524Y-78754819D02*
X40300000Y-78040533D01*
X40300000Y-78040533D02*
X40490476Y-78754819D01*
X40490476Y-78754819D02*
X40728572Y-77754819D01*
X41538095Y-78088152D02*
X41538095Y-78754819D01*
X41300000Y-77707200D02*
X41061905Y-78421485D01*
X41061905Y-78421485D02*
X41680952Y-78421485D01*
X38966667Y-70157200D02*
X39109524Y-70204819D01*
X39109524Y-70204819D02*
X39347619Y-70204819D01*
X39347619Y-70204819D02*
X39442857Y-70157200D01*
X39442857Y-70157200D02*
X39490476Y-70109580D01*
X39490476Y-70109580D02*
X39538095Y-70014342D01*
X39538095Y-70014342D02*
X39538095Y-69919104D01*
X39538095Y-69919104D02*
X39490476Y-69823866D01*
X39490476Y-69823866D02*
X39442857Y-69776247D01*
X39442857Y-69776247D02*
X39347619Y-69728628D01*
X39347619Y-69728628D02*
X39157143Y-69681009D01*
X39157143Y-69681009D02*
X39061905Y-69633390D01*
X39061905Y-69633390D02*
X39014286Y-69585771D01*
X39014286Y-69585771D02*
X38966667Y-69490533D01*
X38966667Y-69490533D02*
X38966667Y-69395295D01*
X38966667Y-69395295D02*
X39014286Y-69300057D01*
X39014286Y-69300057D02*
X39061905Y-69252438D01*
X39061905Y-69252438D02*
X39157143Y-69204819D01*
X39157143Y-69204819D02*
X39395238Y-69204819D01*
X39395238Y-69204819D02*
X39538095Y-69252438D01*
X39871429Y-69204819D02*
X40109524Y-70204819D01*
X40109524Y-70204819D02*
X40300000Y-69490533D01*
X40300000Y-69490533D02*
X40490476Y-70204819D01*
X40490476Y-70204819D02*
X40728572Y-69204819D01*
X41014286Y-69204819D02*
X41633333Y-69204819D01*
X41633333Y-69204819D02*
X41300000Y-69585771D01*
X41300000Y-69585771D02*
X41442857Y-69585771D01*
X41442857Y-69585771D02*
X41538095Y-69633390D01*
X41538095Y-69633390D02*
X41585714Y-69681009D01*
X41585714Y-69681009D02*
X41633333Y-69776247D01*
X41633333Y-69776247D02*
X41633333Y-70014342D01*
X41633333Y-70014342D02*
X41585714Y-70109580D01*
X41585714Y-70109580D02*
X41538095Y-70157200D01*
X41538095Y-70157200D02*
X41442857Y-70204819D01*
X41442857Y-70204819D02*
X41157143Y-70204819D01*
X41157143Y-70204819D02*
X41061905Y-70157200D01*
X41061905Y-70157200D02*
X41014286Y-70109580D01*
X38966667Y-53057200D02*
X39109524Y-53104819D01*
X39109524Y-53104819D02*
X39347619Y-53104819D01*
X39347619Y-53104819D02*
X39442857Y-53057200D01*
X39442857Y-53057200D02*
X39490476Y-53009580D01*
X39490476Y-53009580D02*
X39538095Y-52914342D01*
X39538095Y-52914342D02*
X39538095Y-52819104D01*
X39538095Y-52819104D02*
X39490476Y-52723866D01*
X39490476Y-52723866D02*
X39442857Y-52676247D01*
X39442857Y-52676247D02*
X39347619Y-52628628D01*
X39347619Y-52628628D02*
X39157143Y-52581009D01*
X39157143Y-52581009D02*
X39061905Y-52533390D01*
X39061905Y-52533390D02*
X39014286Y-52485771D01*
X39014286Y-52485771D02*
X38966667Y-52390533D01*
X38966667Y-52390533D02*
X38966667Y-52295295D01*
X38966667Y-52295295D02*
X39014286Y-52200057D01*
X39014286Y-52200057D02*
X39061905Y-52152438D01*
X39061905Y-52152438D02*
X39157143Y-52104819D01*
X39157143Y-52104819D02*
X39395238Y-52104819D01*
X39395238Y-52104819D02*
X39538095Y-52152438D01*
X39871429Y-52104819D02*
X40109524Y-53104819D01*
X40109524Y-53104819D02*
X40300000Y-52390533D01*
X40300000Y-52390533D02*
X40490476Y-53104819D01*
X40490476Y-53104819D02*
X40728572Y-52104819D01*
X41633333Y-53104819D02*
X41061905Y-53104819D01*
X41347619Y-53104819D02*
X41347619Y-52104819D01*
X41347619Y-52104819D02*
X41252381Y-52247676D01*
X41252381Y-52247676D02*
X41157143Y-52342914D01*
X41157143Y-52342914D02*
X41061905Y-52390533D01*
X48921833Y-91557680D02*
X48874214Y-91605300D01*
X48874214Y-91605300D02*
X48731357Y-91652919D01*
X48731357Y-91652919D02*
X48636119Y-91652919D01*
X48636119Y-91652919D02*
X48493262Y-91605300D01*
X48493262Y-91605300D02*
X48398024Y-91510061D01*
X48398024Y-91510061D02*
X48350405Y-91414823D01*
X48350405Y-91414823D02*
X48302786Y-91224347D01*
X48302786Y-91224347D02*
X48302786Y-91081490D01*
X48302786Y-91081490D02*
X48350405Y-90891014D01*
X48350405Y-90891014D02*
X48398024Y-90795776D01*
X48398024Y-90795776D02*
X48493262Y-90700538D01*
X48493262Y-90700538D02*
X48636119Y-90652919D01*
X48636119Y-90652919D02*
X48731357Y-90652919D01*
X48731357Y-90652919D02*
X48874214Y-90700538D01*
X48874214Y-90700538D02*
X48921833Y-90748157D01*
X49826595Y-90652919D02*
X49350405Y-90652919D01*
X49350405Y-90652919D02*
X49302786Y-91129109D01*
X49302786Y-91129109D02*
X49350405Y-91081490D01*
X49350405Y-91081490D02*
X49445643Y-91033871D01*
X49445643Y-91033871D02*
X49683738Y-91033871D01*
X49683738Y-91033871D02*
X49778976Y-91081490D01*
X49778976Y-91081490D02*
X49826595Y-91129109D01*
X49826595Y-91129109D02*
X49874214Y-91224347D01*
X49874214Y-91224347D02*
X49874214Y-91462442D01*
X49874214Y-91462442D02*
X49826595Y-91557680D01*
X49826595Y-91557680D02*
X49778976Y-91605300D01*
X49778976Y-91605300D02*
X49683738Y-91652919D01*
X49683738Y-91652919D02*
X49445643Y-91652919D01*
X49445643Y-91652919D02*
X49350405Y-91605300D01*
X49350405Y-91605300D02*
X49302786Y-91557680D01*
X52034655Y-83116831D02*
X51701322Y-82640640D01*
X51463227Y-83116831D02*
X51463227Y-82116831D01*
X51463227Y-82116831D02*
X51844179Y-82116831D01*
X51844179Y-82116831D02*
X51939417Y-82164450D01*
X51939417Y-82164450D02*
X51987036Y-82212069D01*
X51987036Y-82212069D02*
X52034655Y-82307307D01*
X52034655Y-82307307D02*
X52034655Y-82450164D01*
X52034655Y-82450164D02*
X51987036Y-82545402D01*
X51987036Y-82545402D02*
X51939417Y-82593021D01*
X51939417Y-82593021D02*
X51844179Y-82640640D01*
X51844179Y-82640640D02*
X51463227Y-82640640D01*
X52891798Y-82450164D02*
X52891798Y-83116831D01*
X52653703Y-82069212D02*
X52415608Y-82783497D01*
X52415608Y-82783497D02*
X53034655Y-82783497D01*
X48715260Y-82951118D02*
X48667641Y-82998738D01*
X48667641Y-82998738D02*
X48524784Y-83046357D01*
X48524784Y-83046357D02*
X48429546Y-83046357D01*
X48429546Y-83046357D02*
X48286689Y-82998738D01*
X48286689Y-82998738D02*
X48191451Y-82903499D01*
X48191451Y-82903499D02*
X48143832Y-82808261D01*
X48143832Y-82808261D02*
X48096213Y-82617785D01*
X48096213Y-82617785D02*
X48096213Y-82474928D01*
X48096213Y-82474928D02*
X48143832Y-82284452D01*
X48143832Y-82284452D02*
X48191451Y-82189214D01*
X48191451Y-82189214D02*
X48286689Y-82093976D01*
X48286689Y-82093976D02*
X48429546Y-82046357D01*
X48429546Y-82046357D02*
X48524784Y-82046357D01*
X48524784Y-82046357D02*
X48667641Y-82093976D01*
X48667641Y-82093976D02*
X48715260Y-82141595D01*
X49572403Y-82379690D02*
X49572403Y-83046357D01*
X49334308Y-81998738D02*
X49096213Y-82713023D01*
X49096213Y-82713023D02*
X49715260Y-82713023D01*
X52633333Y-91654782D02*
X52300000Y-91178591D01*
X52061905Y-91654782D02*
X52061905Y-90654782D01*
X52061905Y-90654782D02*
X52442857Y-90654782D01*
X52442857Y-90654782D02*
X52538095Y-90702401D01*
X52538095Y-90702401D02*
X52585714Y-90750020D01*
X52585714Y-90750020D02*
X52633333Y-90845258D01*
X52633333Y-90845258D02*
X52633333Y-90988115D01*
X52633333Y-90988115D02*
X52585714Y-91083353D01*
X52585714Y-91083353D02*
X52538095Y-91130972D01*
X52538095Y-91130972D02*
X52442857Y-91178591D01*
X52442857Y-91178591D02*
X52061905Y-91178591D01*
X53538095Y-90654782D02*
X53061905Y-90654782D01*
X53061905Y-90654782D02*
X53014286Y-91130972D01*
X53014286Y-91130972D02*
X53061905Y-91083353D01*
X53061905Y-91083353D02*
X53157143Y-91035734D01*
X53157143Y-91035734D02*
X53395238Y-91035734D01*
X53395238Y-91035734D02*
X53490476Y-91083353D01*
X53490476Y-91083353D02*
X53538095Y-91130972D01*
X53538095Y-91130972D02*
X53585714Y-91226210D01*
X53585714Y-91226210D02*
X53585714Y-91464305D01*
X53585714Y-91464305D02*
X53538095Y-91559543D01*
X53538095Y-91559543D02*
X53490476Y-91607163D01*
X53490476Y-91607163D02*
X53395238Y-91654782D01*
X53395238Y-91654782D02*
X53157143Y-91654782D01*
X53157143Y-91654782D02*
X53061905Y-91607163D01*
X53061905Y-91607163D02*
X53014286Y-91559543D01*
X38966667Y-61607200D02*
X39109524Y-61654819D01*
X39109524Y-61654819D02*
X39347619Y-61654819D01*
X39347619Y-61654819D02*
X39442857Y-61607200D01*
X39442857Y-61607200D02*
X39490476Y-61559580D01*
X39490476Y-61559580D02*
X39538095Y-61464342D01*
X39538095Y-61464342D02*
X39538095Y-61369104D01*
X39538095Y-61369104D02*
X39490476Y-61273866D01*
X39490476Y-61273866D02*
X39442857Y-61226247D01*
X39442857Y-61226247D02*
X39347619Y-61178628D01*
X39347619Y-61178628D02*
X39157143Y-61131009D01*
X39157143Y-61131009D02*
X39061905Y-61083390D01*
X39061905Y-61083390D02*
X39014286Y-61035771D01*
X39014286Y-61035771D02*
X38966667Y-60940533D01*
X38966667Y-60940533D02*
X38966667Y-60845295D01*
X38966667Y-60845295D02*
X39014286Y-60750057D01*
X39014286Y-60750057D02*
X39061905Y-60702438D01*
X39061905Y-60702438D02*
X39157143Y-60654819D01*
X39157143Y-60654819D02*
X39395238Y-60654819D01*
X39395238Y-60654819D02*
X39538095Y-60702438D01*
X39871429Y-60654819D02*
X40109524Y-61654819D01*
X40109524Y-61654819D02*
X40300000Y-60940533D01*
X40300000Y-60940533D02*
X40490476Y-61654819D01*
X40490476Y-61654819D02*
X40728572Y-60654819D01*
X41061905Y-60750057D02*
X41109524Y-60702438D01*
X41109524Y-60702438D02*
X41204762Y-60654819D01*
X41204762Y-60654819D02*
X41442857Y-60654819D01*
X41442857Y-60654819D02*
X41538095Y-60702438D01*
X41538095Y-60702438D02*
X41585714Y-60750057D01*
X41585714Y-60750057D02*
X41633333Y-60845295D01*
X41633333Y-60845295D02*
X41633333Y-60940533D01*
X41633333Y-60940533D02*
X41585714Y-61083390D01*
X41585714Y-61083390D02*
X41014286Y-61654819D01*
X41014286Y-61654819D02*
X41633333Y-61654819D01*
X51833333Y-57442819D02*
X51500000Y-56966628D01*
X51261905Y-57442819D02*
X51261905Y-56442819D01*
X51261905Y-56442819D02*
X51642857Y-56442819D01*
X51642857Y-56442819D02*
X51738095Y-56490438D01*
X51738095Y-56490438D02*
X51785714Y-56538057D01*
X51785714Y-56538057D02*
X51833333Y-56633295D01*
X51833333Y-56633295D02*
X51833333Y-56776152D01*
X51833333Y-56776152D02*
X51785714Y-56871390D01*
X51785714Y-56871390D02*
X51738095Y-56919009D01*
X51738095Y-56919009D02*
X51642857Y-56966628D01*
X51642857Y-56966628D02*
X51261905Y-56966628D01*
X52785714Y-57442819D02*
X52214286Y-57442819D01*
X52500000Y-57442819D02*
X52500000Y-56442819D01*
X52500000Y-56442819D02*
X52404762Y-56585676D01*
X52404762Y-56585676D02*
X52309524Y-56680914D01*
X52309524Y-56680914D02*
X52214286Y-56728533D01*
X60657142Y-140584819D02*
X60323809Y-140108628D01*
X60085714Y-140584819D02*
X60085714Y-139584819D01*
X60085714Y-139584819D02*
X60466666Y-139584819D01*
X60466666Y-139584819D02*
X60561904Y-139632438D01*
X60561904Y-139632438D02*
X60609523Y-139680057D01*
X60609523Y-139680057D02*
X60657142Y-139775295D01*
X60657142Y-139775295D02*
X60657142Y-139918152D01*
X60657142Y-139918152D02*
X60609523Y-140013390D01*
X60609523Y-140013390D02*
X60561904Y-140061009D01*
X60561904Y-140061009D02*
X60466666Y-140108628D01*
X60466666Y-140108628D02*
X60085714Y-140108628D01*
X61609523Y-140584819D02*
X61038095Y-140584819D01*
X61323809Y-140584819D02*
X61323809Y-139584819D01*
X61323809Y-139584819D02*
X61228571Y-139727676D01*
X61228571Y-139727676D02*
X61133333Y-139822914D01*
X61133333Y-139822914D02*
X61038095Y-139870533D01*
X61990476Y-139680057D02*
X62038095Y-139632438D01*
X62038095Y-139632438D02*
X62133333Y-139584819D01*
X62133333Y-139584819D02*
X62371428Y-139584819D01*
X62371428Y-139584819D02*
X62466666Y-139632438D01*
X62466666Y-139632438D02*
X62514285Y-139680057D01*
X62514285Y-139680057D02*
X62561904Y-139775295D01*
X62561904Y-139775295D02*
X62561904Y-139870533D01*
X62561904Y-139870533D02*
X62514285Y-140013390D01*
X62514285Y-140013390D02*
X61942857Y-140584819D01*
X61942857Y-140584819D02*
X62561904Y-140584819D01*
X46354819Y-137233094D02*
X45354819Y-137233094D01*
X45354819Y-137233094D02*
X45354819Y-136994999D01*
X45354819Y-136994999D02*
X45402438Y-136852142D01*
X45402438Y-136852142D02*
X45497676Y-136756904D01*
X45497676Y-136756904D02*
X45592914Y-136709285D01*
X45592914Y-136709285D02*
X45783390Y-136661666D01*
X45783390Y-136661666D02*
X45926247Y-136661666D01*
X45926247Y-136661666D02*
X46116723Y-136709285D01*
X46116723Y-136709285D02*
X46211961Y-136756904D01*
X46211961Y-136756904D02*
X46307200Y-136852142D01*
X46307200Y-136852142D02*
X46354819Y-136994999D01*
X46354819Y-136994999D02*
X46354819Y-137233094D01*
X45354819Y-135756904D02*
X45354819Y-136233094D01*
X45354819Y-136233094D02*
X45831009Y-136280713D01*
X45831009Y-136280713D02*
X45783390Y-136233094D01*
X45783390Y-136233094D02*
X45735771Y-136137856D01*
X45735771Y-136137856D02*
X45735771Y-135899761D01*
X45735771Y-135899761D02*
X45783390Y-135804523D01*
X45783390Y-135804523D02*
X45831009Y-135756904D01*
X45831009Y-135756904D02*
X45926247Y-135709285D01*
X45926247Y-135709285D02*
X46164342Y-135709285D01*
X46164342Y-135709285D02*
X46259580Y-135756904D01*
X46259580Y-135756904D02*
X46307200Y-135804523D01*
X46307200Y-135804523D02*
X46354819Y-135899761D01*
X46354819Y-135899761D02*
X46354819Y-136137856D01*
X46354819Y-136137856D02*
X46307200Y-136233094D01*
X46307200Y-136233094D02*
X46259580Y-136280713D01*
X61914819Y-137233094D02*
X60914819Y-137233094D01*
X60914819Y-137233094D02*
X60914819Y-136994999D01*
X60914819Y-136994999D02*
X60962438Y-136852142D01*
X60962438Y-136852142D02*
X61057676Y-136756904D01*
X61057676Y-136756904D02*
X61152914Y-136709285D01*
X61152914Y-136709285D02*
X61343390Y-136661666D01*
X61343390Y-136661666D02*
X61486247Y-136661666D01*
X61486247Y-136661666D02*
X61676723Y-136709285D01*
X61676723Y-136709285D02*
X61771961Y-136756904D01*
X61771961Y-136756904D02*
X61867200Y-136852142D01*
X61867200Y-136852142D02*
X61914819Y-136994999D01*
X61914819Y-136994999D02*
X61914819Y-137233094D01*
X60914819Y-135804523D02*
X60914819Y-135994999D01*
X60914819Y-135994999D02*
X60962438Y-136090237D01*
X60962438Y-136090237D02*
X61010057Y-136137856D01*
X61010057Y-136137856D02*
X61152914Y-136233094D01*
X61152914Y-136233094D02*
X61343390Y-136280713D01*
X61343390Y-136280713D02*
X61724342Y-136280713D01*
X61724342Y-136280713D02*
X61819580Y-136233094D01*
X61819580Y-136233094D02*
X61867200Y-136185475D01*
X61867200Y-136185475D02*
X61914819Y-136090237D01*
X61914819Y-136090237D02*
X61914819Y-135899761D01*
X61914819Y-135899761D02*
X61867200Y-135804523D01*
X61867200Y-135804523D02*
X61819580Y-135756904D01*
X61819580Y-135756904D02*
X61724342Y-135709285D01*
X61724342Y-135709285D02*
X61486247Y-135709285D01*
X61486247Y-135709285D02*
X61391009Y-135756904D01*
X61391009Y-135756904D02*
X61343390Y-135804523D01*
X61343390Y-135804523D02*
X61295771Y-135899761D01*
X61295771Y-135899761D02*
X61295771Y-136090237D01*
X61295771Y-136090237D02*
X61343390Y-136185475D01*
X61343390Y-136185475D02*
X61391009Y-136233094D01*
X61391009Y-136233094D02*
X61486247Y-136280713D01*
X45357142Y-145124819D02*
X45023809Y-144648628D01*
X44785714Y-145124819D02*
X44785714Y-144124819D01*
X44785714Y-144124819D02*
X45166666Y-144124819D01*
X45166666Y-144124819D02*
X45261904Y-144172438D01*
X45261904Y-144172438D02*
X45309523Y-144220057D01*
X45309523Y-144220057D02*
X45357142Y-144315295D01*
X45357142Y-144315295D02*
X45357142Y-144458152D01*
X45357142Y-144458152D02*
X45309523Y-144553390D01*
X45309523Y-144553390D02*
X45261904Y-144601009D01*
X45261904Y-144601009D02*
X45166666Y-144648628D01*
X45166666Y-144648628D02*
X44785714Y-144648628D01*
X46309523Y-145124819D02*
X45738095Y-145124819D01*
X46023809Y-145124819D02*
X46023809Y-144124819D01*
X46023809Y-144124819D02*
X45928571Y-144267676D01*
X45928571Y-144267676D02*
X45833333Y-144362914D01*
X45833333Y-144362914D02*
X45738095Y-144410533D01*
X47261904Y-145124819D02*
X46690476Y-145124819D01*
X46976190Y-145124819D02*
X46976190Y-144124819D01*
X46976190Y-144124819D02*
X46880952Y-144267676D01*
X46880952Y-144267676D02*
X46785714Y-144362914D01*
X46785714Y-144362914D02*
X46690476Y-144410533D01*
X63004761Y-120350057D02*
X62909523Y-120302438D01*
X62909523Y-120302438D02*
X62814285Y-120207200D01*
X62814285Y-120207200D02*
X62671428Y-120064342D01*
X62671428Y-120064342D02*
X62576190Y-120016723D01*
X62576190Y-120016723D02*
X62480952Y-120016723D01*
X62528571Y-120254819D02*
X62433333Y-120207200D01*
X62433333Y-120207200D02*
X62338095Y-120111961D01*
X62338095Y-120111961D02*
X62290476Y-119921485D01*
X62290476Y-119921485D02*
X62290476Y-119588152D01*
X62290476Y-119588152D02*
X62338095Y-119397676D01*
X62338095Y-119397676D02*
X62433333Y-119302438D01*
X62433333Y-119302438D02*
X62528571Y-119254819D01*
X62528571Y-119254819D02*
X62719047Y-119254819D01*
X62719047Y-119254819D02*
X62814285Y-119302438D01*
X62814285Y-119302438D02*
X62909523Y-119397676D01*
X62909523Y-119397676D02*
X62957142Y-119588152D01*
X62957142Y-119588152D02*
X62957142Y-119921485D01*
X62957142Y-119921485D02*
X62909523Y-120111961D01*
X62909523Y-120111961D02*
X62814285Y-120207200D01*
X62814285Y-120207200D02*
X62719047Y-120254819D01*
X62719047Y-120254819D02*
X62528571Y-120254819D01*
X63909523Y-120254819D02*
X63338095Y-120254819D01*
X63623809Y-120254819D02*
X63623809Y-119254819D01*
X63623809Y-119254819D02*
X63528571Y-119397676D01*
X63528571Y-119397676D02*
X63433333Y-119492914D01*
X63433333Y-119492914D02*
X63338095Y-119540533D01*
X122453919Y-56676185D02*
X121453919Y-56676185D01*
X121453919Y-56676185D02*
X121453919Y-56438090D01*
X121453919Y-56438090D02*
X121501538Y-56295233D01*
X121501538Y-56295233D02*
X121596776Y-56199995D01*
X121596776Y-56199995D02*
X121692014Y-56152376D01*
X121692014Y-56152376D02*
X121882490Y-56104757D01*
X121882490Y-56104757D02*
X122025347Y-56104757D01*
X122025347Y-56104757D02*
X122215823Y-56152376D01*
X122215823Y-56152376D02*
X122311061Y-56199995D01*
X122311061Y-56199995D02*
X122406300Y-56295233D01*
X122406300Y-56295233D02*
X122453919Y-56438090D01*
X122453919Y-56438090D02*
X122453919Y-56676185D01*
X122406300Y-55723804D02*
X122453919Y-55580947D01*
X122453919Y-55580947D02*
X122453919Y-55342852D01*
X122453919Y-55342852D02*
X122406300Y-55247614D01*
X122406300Y-55247614D02*
X122358680Y-55199995D01*
X122358680Y-55199995D02*
X122263442Y-55152376D01*
X122263442Y-55152376D02*
X122168204Y-55152376D01*
X122168204Y-55152376D02*
X122072966Y-55199995D01*
X122072966Y-55199995D02*
X122025347Y-55247614D01*
X122025347Y-55247614D02*
X121977728Y-55342852D01*
X121977728Y-55342852D02*
X121930109Y-55533328D01*
X121930109Y-55533328D02*
X121882490Y-55628566D01*
X121882490Y-55628566D02*
X121834871Y-55676185D01*
X121834871Y-55676185D02*
X121739633Y-55723804D01*
X121739633Y-55723804D02*
X121644395Y-55723804D01*
X121644395Y-55723804D02*
X121549157Y-55676185D01*
X121549157Y-55676185D02*
X121501538Y-55628566D01*
X121501538Y-55628566D02*
X121453919Y-55533328D01*
X121453919Y-55533328D02*
X121453919Y-55295233D01*
X121453919Y-55295233D02*
X121501538Y-55152376D01*
X121453919Y-54819042D02*
X121453919Y-54199995D01*
X121453919Y-54199995D02*
X121834871Y-54533328D01*
X121834871Y-54533328D02*
X121834871Y-54390471D01*
X121834871Y-54390471D02*
X121882490Y-54295233D01*
X121882490Y-54295233D02*
X121930109Y-54247614D01*
X121930109Y-54247614D02*
X122025347Y-54199995D01*
X122025347Y-54199995D02*
X122263442Y-54199995D01*
X122263442Y-54199995D02*
X122358680Y-54247614D01*
X122358680Y-54247614D02*
X122406300Y-54295233D01*
X122406300Y-54295233D02*
X122453919Y-54390471D01*
X122453919Y-54390471D02*
X122453919Y-54676185D01*
X122453919Y-54676185D02*
X122406300Y-54771423D01*
X122406300Y-54771423D02*
X122358680Y-54819042D01*
X63857142Y-107624819D02*
X63523809Y-107148628D01*
X63285714Y-107624819D02*
X63285714Y-106624819D01*
X63285714Y-106624819D02*
X63666666Y-106624819D01*
X63666666Y-106624819D02*
X63761904Y-106672438D01*
X63761904Y-106672438D02*
X63809523Y-106720057D01*
X63809523Y-106720057D02*
X63857142Y-106815295D01*
X63857142Y-106815295D02*
X63857142Y-106958152D01*
X63857142Y-106958152D02*
X63809523Y-107053390D01*
X63809523Y-107053390D02*
X63761904Y-107101009D01*
X63761904Y-107101009D02*
X63666666Y-107148628D01*
X63666666Y-107148628D02*
X63285714Y-107148628D01*
X64809523Y-107624819D02*
X64238095Y-107624819D01*
X64523809Y-107624819D02*
X64523809Y-106624819D01*
X64523809Y-106624819D02*
X64428571Y-106767676D01*
X64428571Y-106767676D02*
X64333333Y-106862914D01*
X64333333Y-106862914D02*
X64238095Y-106910533D01*
X65428571Y-106624819D02*
X65523809Y-106624819D01*
X65523809Y-106624819D02*
X65619047Y-106672438D01*
X65619047Y-106672438D02*
X65666666Y-106720057D01*
X65666666Y-106720057D02*
X65714285Y-106815295D01*
X65714285Y-106815295D02*
X65761904Y-107005771D01*
X65761904Y-107005771D02*
X65761904Y-107243866D01*
X65761904Y-107243866D02*
X65714285Y-107434342D01*
X65714285Y-107434342D02*
X65666666Y-107529580D01*
X65666666Y-107529580D02*
X65619047Y-107577200D01*
X65619047Y-107577200D02*
X65523809Y-107624819D01*
X65523809Y-107624819D02*
X65428571Y-107624819D01*
X65428571Y-107624819D02*
X65333333Y-107577200D01*
X65333333Y-107577200D02*
X65285714Y-107529580D01*
X65285714Y-107529580D02*
X65238095Y-107434342D01*
X65238095Y-107434342D02*
X65190476Y-107243866D01*
X65190476Y-107243866D02*
X65190476Y-107005771D01*
X65190476Y-107005771D02*
X65238095Y-106815295D01*
X65238095Y-106815295D02*
X65285714Y-106720057D01*
X65285714Y-106720057D02*
X65333333Y-106672438D01*
X65333333Y-106672438D02*
X65428571Y-106624819D01*
X124897680Y-142340066D02*
X124945300Y-142387685D01*
X124945300Y-142387685D02*
X124992919Y-142530542D01*
X124992919Y-142530542D02*
X124992919Y-142625780D01*
X124992919Y-142625780D02*
X124945300Y-142768637D01*
X124945300Y-142768637D02*
X124850061Y-142863875D01*
X124850061Y-142863875D02*
X124754823Y-142911494D01*
X124754823Y-142911494D02*
X124564347Y-142959113D01*
X124564347Y-142959113D02*
X124421490Y-142959113D01*
X124421490Y-142959113D02*
X124231014Y-142911494D01*
X124231014Y-142911494D02*
X124135776Y-142863875D01*
X124135776Y-142863875D02*
X124040538Y-142768637D01*
X124040538Y-142768637D02*
X123992919Y-142625780D01*
X123992919Y-142625780D02*
X123992919Y-142530542D01*
X123992919Y-142530542D02*
X124040538Y-142387685D01*
X124040538Y-142387685D02*
X124088157Y-142340066D01*
X124421490Y-141768637D02*
X124373871Y-141863875D01*
X124373871Y-141863875D02*
X124326252Y-141911494D01*
X124326252Y-141911494D02*
X124231014Y-141959113D01*
X124231014Y-141959113D02*
X124183395Y-141959113D01*
X124183395Y-141959113D02*
X124088157Y-141911494D01*
X124088157Y-141911494D02*
X124040538Y-141863875D01*
X124040538Y-141863875D02*
X123992919Y-141768637D01*
X123992919Y-141768637D02*
X123992919Y-141578161D01*
X123992919Y-141578161D02*
X124040538Y-141482923D01*
X124040538Y-141482923D02*
X124088157Y-141435304D01*
X124088157Y-141435304D02*
X124183395Y-141387685D01*
X124183395Y-141387685D02*
X124231014Y-141387685D01*
X124231014Y-141387685D02*
X124326252Y-141435304D01*
X124326252Y-141435304D02*
X124373871Y-141482923D01*
X124373871Y-141482923D02*
X124421490Y-141578161D01*
X124421490Y-141578161D02*
X124421490Y-141768637D01*
X124421490Y-141768637D02*
X124469109Y-141863875D01*
X124469109Y-141863875D02*
X124516728Y-141911494D01*
X124516728Y-141911494D02*
X124611966Y-141959113D01*
X124611966Y-141959113D02*
X124802442Y-141959113D01*
X124802442Y-141959113D02*
X124897680Y-141911494D01*
X124897680Y-141911494D02*
X124945300Y-141863875D01*
X124945300Y-141863875D02*
X124992919Y-141768637D01*
X124992919Y-141768637D02*
X124992919Y-141578161D01*
X124992919Y-141578161D02*
X124945300Y-141482923D01*
X124945300Y-141482923D02*
X124897680Y-141435304D01*
X124897680Y-141435304D02*
X124802442Y-141387685D01*
X124802442Y-141387685D02*
X124611966Y-141387685D01*
X124611966Y-141387685D02*
X124516728Y-141435304D01*
X124516728Y-141435304D02*
X124469109Y-141482923D01*
X124469109Y-141482923D02*
X124421490Y-141578161D01*
X54461905Y-104354819D02*
X54461905Y-103354819D01*
X54461905Y-103354819D02*
X54700000Y-103354819D01*
X54700000Y-103354819D02*
X54842857Y-103402438D01*
X54842857Y-103402438D02*
X54938095Y-103497676D01*
X54938095Y-103497676D02*
X54985714Y-103592914D01*
X54985714Y-103592914D02*
X55033333Y-103783390D01*
X55033333Y-103783390D02*
X55033333Y-103926247D01*
X55033333Y-103926247D02*
X54985714Y-104116723D01*
X54985714Y-104116723D02*
X54938095Y-104211961D01*
X54938095Y-104211961D02*
X54842857Y-104307200D01*
X54842857Y-104307200D02*
X54700000Y-104354819D01*
X54700000Y-104354819D02*
X54461905Y-104354819D01*
X55890476Y-103688152D02*
X55890476Y-104354819D01*
X55652381Y-103307200D02*
X55414286Y-104021485D01*
X55414286Y-104021485D02*
X56033333Y-104021485D01*
X54861905Y-97354819D02*
X54861905Y-96354819D01*
X54861905Y-96354819D02*
X55100000Y-96354819D01*
X55100000Y-96354819D02*
X55242857Y-96402438D01*
X55242857Y-96402438D02*
X55338095Y-96497676D01*
X55338095Y-96497676D02*
X55385714Y-96592914D01*
X55385714Y-96592914D02*
X55433333Y-96783390D01*
X55433333Y-96783390D02*
X55433333Y-96926247D01*
X55433333Y-96926247D02*
X55385714Y-97116723D01*
X55385714Y-97116723D02*
X55338095Y-97211961D01*
X55338095Y-97211961D02*
X55242857Y-97307200D01*
X55242857Y-97307200D02*
X55100000Y-97354819D01*
X55100000Y-97354819D02*
X54861905Y-97354819D01*
X55766667Y-96354819D02*
X56385714Y-96354819D01*
X56385714Y-96354819D02*
X56052381Y-96735771D01*
X56052381Y-96735771D02*
X56195238Y-96735771D01*
X56195238Y-96735771D02*
X56290476Y-96783390D01*
X56290476Y-96783390D02*
X56338095Y-96831009D01*
X56338095Y-96831009D02*
X56385714Y-96926247D01*
X56385714Y-96926247D02*
X56385714Y-97164342D01*
X56385714Y-97164342D02*
X56338095Y-97259580D01*
X56338095Y-97259580D02*
X56290476Y-97307200D01*
X56290476Y-97307200D02*
X56195238Y-97354819D01*
X56195238Y-97354819D02*
X55909524Y-97354819D01*
X55909524Y-97354819D02*
X55814286Y-97307200D01*
X55814286Y-97307200D02*
X55766667Y-97259580D01*
X105294819Y-56679285D02*
X104294819Y-56679285D01*
X104294819Y-56679285D02*
X104294819Y-56441190D01*
X104294819Y-56441190D02*
X104342438Y-56298333D01*
X104342438Y-56298333D02*
X104437676Y-56203095D01*
X104437676Y-56203095D02*
X104532914Y-56155476D01*
X104532914Y-56155476D02*
X104723390Y-56107857D01*
X104723390Y-56107857D02*
X104866247Y-56107857D01*
X104866247Y-56107857D02*
X105056723Y-56155476D01*
X105056723Y-56155476D02*
X105151961Y-56203095D01*
X105151961Y-56203095D02*
X105247200Y-56298333D01*
X105247200Y-56298333D02*
X105294819Y-56441190D01*
X105294819Y-56441190D02*
X105294819Y-56679285D01*
X105247200Y-55726904D02*
X105294819Y-55584047D01*
X105294819Y-55584047D02*
X105294819Y-55345952D01*
X105294819Y-55345952D02*
X105247200Y-55250714D01*
X105247200Y-55250714D02*
X105199580Y-55203095D01*
X105199580Y-55203095D02*
X105104342Y-55155476D01*
X105104342Y-55155476D02*
X105009104Y-55155476D01*
X105009104Y-55155476D02*
X104913866Y-55203095D01*
X104913866Y-55203095D02*
X104866247Y-55250714D01*
X104866247Y-55250714D02*
X104818628Y-55345952D01*
X104818628Y-55345952D02*
X104771009Y-55536428D01*
X104771009Y-55536428D02*
X104723390Y-55631666D01*
X104723390Y-55631666D02*
X104675771Y-55679285D01*
X104675771Y-55679285D02*
X104580533Y-55726904D01*
X104580533Y-55726904D02*
X104485295Y-55726904D01*
X104485295Y-55726904D02*
X104390057Y-55679285D01*
X104390057Y-55679285D02*
X104342438Y-55631666D01*
X104342438Y-55631666D02*
X104294819Y-55536428D01*
X104294819Y-55536428D02*
X104294819Y-55298333D01*
X104294819Y-55298333D02*
X104342438Y-55155476D01*
X104390057Y-54774523D02*
X104342438Y-54726904D01*
X104342438Y-54726904D02*
X104294819Y-54631666D01*
X104294819Y-54631666D02*
X104294819Y-54393571D01*
X104294819Y-54393571D02*
X104342438Y-54298333D01*
X104342438Y-54298333D02*
X104390057Y-54250714D01*
X104390057Y-54250714D02*
X104485295Y-54203095D01*
X104485295Y-54203095D02*
X104580533Y-54203095D01*
X104580533Y-54203095D02*
X104723390Y-54250714D01*
X104723390Y-54250714D02*
X105294819Y-54822142D01*
X105294819Y-54822142D02*
X105294819Y-54203095D01*
X51719047Y-116231009D02*
X51861904Y-116278628D01*
X51861904Y-116278628D02*
X51909523Y-116326247D01*
X51909523Y-116326247D02*
X51957142Y-116421485D01*
X51957142Y-116421485D02*
X51957142Y-116564342D01*
X51957142Y-116564342D02*
X51909523Y-116659580D01*
X51909523Y-116659580D02*
X51861904Y-116707200D01*
X51861904Y-116707200D02*
X51766666Y-116754819D01*
X51766666Y-116754819D02*
X51385714Y-116754819D01*
X51385714Y-116754819D02*
X51385714Y-115754819D01*
X51385714Y-115754819D02*
X51719047Y-115754819D01*
X51719047Y-115754819D02*
X51814285Y-115802438D01*
X51814285Y-115802438D02*
X51861904Y-115850057D01*
X51861904Y-115850057D02*
X51909523Y-115945295D01*
X51909523Y-115945295D02*
X51909523Y-116040533D01*
X51909523Y-116040533D02*
X51861904Y-116135771D01*
X51861904Y-116135771D02*
X51814285Y-116183390D01*
X51814285Y-116183390D02*
X51719047Y-116231009D01*
X51719047Y-116231009D02*
X51385714Y-116231009D01*
X52290476Y-115754819D02*
X52957142Y-115754819D01*
X52957142Y-115754819D02*
X52290476Y-116754819D01*
X52290476Y-116754819D02*
X52957142Y-116754819D01*
X53861904Y-116754819D02*
X53290476Y-116754819D01*
X53576190Y-116754819D02*
X53576190Y-115754819D01*
X53576190Y-115754819D02*
X53480952Y-115897676D01*
X53480952Y-115897676D02*
X53385714Y-115992914D01*
X53385714Y-115992914D02*
X53290476Y-116040533D01*
X48409048Y-121033866D02*
X49170953Y-121033866D01*
X48790000Y-121414819D02*
X48790000Y-120652914D01*
X58756905Y-78124819D02*
X58756905Y-77124819D01*
X58756905Y-77124819D02*
X58995000Y-77124819D01*
X58995000Y-77124819D02*
X59137857Y-77172438D01*
X59137857Y-77172438D02*
X59233095Y-77267676D01*
X59233095Y-77267676D02*
X59280714Y-77362914D01*
X59280714Y-77362914D02*
X59328333Y-77553390D01*
X59328333Y-77553390D02*
X59328333Y-77696247D01*
X59328333Y-77696247D02*
X59280714Y-77886723D01*
X59280714Y-77886723D02*
X59233095Y-77981961D01*
X59233095Y-77981961D02*
X59137857Y-78077200D01*
X59137857Y-78077200D02*
X58995000Y-78124819D01*
X58995000Y-78124819D02*
X58756905Y-78124819D01*
X60280714Y-78124819D02*
X59709286Y-78124819D01*
X59995000Y-78124819D02*
X59995000Y-77124819D01*
X59995000Y-77124819D02*
X59899762Y-77267676D01*
X59899762Y-77267676D02*
X59804524Y-77362914D01*
X59804524Y-77362914D02*
X59709286Y-77410533D01*
X69324819Y-100396666D02*
X68848628Y-100729999D01*
X69324819Y-100968094D02*
X68324819Y-100968094D01*
X68324819Y-100968094D02*
X68324819Y-100587142D01*
X68324819Y-100587142D02*
X68372438Y-100491904D01*
X68372438Y-100491904D02*
X68420057Y-100444285D01*
X68420057Y-100444285D02*
X68515295Y-100396666D01*
X68515295Y-100396666D02*
X68658152Y-100396666D01*
X68658152Y-100396666D02*
X68753390Y-100444285D01*
X68753390Y-100444285D02*
X68801009Y-100491904D01*
X68801009Y-100491904D02*
X68848628Y-100587142D01*
X68848628Y-100587142D02*
X68848628Y-100968094D01*
X69324819Y-99920475D02*
X69324819Y-99729999D01*
X69324819Y-99729999D02*
X69277200Y-99634761D01*
X69277200Y-99634761D02*
X69229580Y-99587142D01*
X69229580Y-99587142D02*
X69086723Y-99491904D01*
X69086723Y-99491904D02*
X68896247Y-99444285D01*
X68896247Y-99444285D02*
X68515295Y-99444285D01*
X68515295Y-99444285D02*
X68420057Y-99491904D01*
X68420057Y-99491904D02*
X68372438Y-99539523D01*
X68372438Y-99539523D02*
X68324819Y-99634761D01*
X68324819Y-99634761D02*
X68324819Y-99825237D01*
X68324819Y-99825237D02*
X68372438Y-99920475D01*
X68372438Y-99920475D02*
X68420057Y-99968094D01*
X68420057Y-99968094D02*
X68515295Y-100015713D01*
X68515295Y-100015713D02*
X68753390Y-100015713D01*
X68753390Y-100015713D02*
X68848628Y-99968094D01*
X68848628Y-99968094D02*
X68896247Y-99920475D01*
X68896247Y-99920475D02*
X68943866Y-99825237D01*
X68943866Y-99825237D02*
X68943866Y-99634761D01*
X68943866Y-99634761D02*
X68896247Y-99539523D01*
X68896247Y-99539523D02*
X68848628Y-99491904D01*
X68848628Y-99491904D02*
X68753390Y-99444285D01*
X64584819Y-85706666D02*
X64108628Y-86039999D01*
X64584819Y-86278094D02*
X63584819Y-86278094D01*
X63584819Y-86278094D02*
X63584819Y-85897142D01*
X63584819Y-85897142D02*
X63632438Y-85801904D01*
X63632438Y-85801904D02*
X63680057Y-85754285D01*
X63680057Y-85754285D02*
X63775295Y-85706666D01*
X63775295Y-85706666D02*
X63918152Y-85706666D01*
X63918152Y-85706666D02*
X64013390Y-85754285D01*
X64013390Y-85754285D02*
X64061009Y-85801904D01*
X64061009Y-85801904D02*
X64108628Y-85897142D01*
X64108628Y-85897142D02*
X64108628Y-86278094D01*
X64013390Y-85135237D02*
X63965771Y-85230475D01*
X63965771Y-85230475D02*
X63918152Y-85278094D01*
X63918152Y-85278094D02*
X63822914Y-85325713D01*
X63822914Y-85325713D02*
X63775295Y-85325713D01*
X63775295Y-85325713D02*
X63680057Y-85278094D01*
X63680057Y-85278094D02*
X63632438Y-85230475D01*
X63632438Y-85230475D02*
X63584819Y-85135237D01*
X63584819Y-85135237D02*
X63584819Y-84944761D01*
X63584819Y-84944761D02*
X63632438Y-84849523D01*
X63632438Y-84849523D02*
X63680057Y-84801904D01*
X63680057Y-84801904D02*
X63775295Y-84754285D01*
X63775295Y-84754285D02*
X63822914Y-84754285D01*
X63822914Y-84754285D02*
X63918152Y-84801904D01*
X63918152Y-84801904D02*
X63965771Y-84849523D01*
X63965771Y-84849523D02*
X64013390Y-84944761D01*
X64013390Y-84944761D02*
X64013390Y-85135237D01*
X64013390Y-85135237D02*
X64061009Y-85230475D01*
X64061009Y-85230475D02*
X64108628Y-85278094D01*
X64108628Y-85278094D02*
X64203866Y-85325713D01*
X64203866Y-85325713D02*
X64394342Y-85325713D01*
X64394342Y-85325713D02*
X64489580Y-85278094D01*
X64489580Y-85278094D02*
X64537200Y-85230475D01*
X64537200Y-85230475D02*
X64584819Y-85135237D01*
X64584819Y-85135237D02*
X64584819Y-84944761D01*
X64584819Y-84944761D02*
X64537200Y-84849523D01*
X64537200Y-84849523D02*
X64489580Y-84801904D01*
X64489580Y-84801904D02*
X64394342Y-84754285D01*
X64394342Y-84754285D02*
X64203866Y-84754285D01*
X64203866Y-84754285D02*
X64108628Y-84801904D01*
X64108628Y-84801904D02*
X64061009Y-84849523D01*
X64061009Y-84849523D02*
X64013390Y-84944761D01*
X64333333Y-74124819D02*
X64000000Y-73648628D01*
X63761905Y-74124819D02*
X63761905Y-73124819D01*
X63761905Y-73124819D02*
X64142857Y-73124819D01*
X64142857Y-73124819D02*
X64238095Y-73172438D01*
X64238095Y-73172438D02*
X64285714Y-73220057D01*
X64285714Y-73220057D02*
X64333333Y-73315295D01*
X64333333Y-73315295D02*
X64333333Y-73458152D01*
X64333333Y-73458152D02*
X64285714Y-73553390D01*
X64285714Y-73553390D02*
X64238095Y-73601009D01*
X64238095Y-73601009D02*
X64142857Y-73648628D01*
X64142857Y-73648628D02*
X63761905Y-73648628D01*
X64666667Y-73124819D02*
X65333333Y-73124819D01*
X65333333Y-73124819D02*
X64904762Y-74124819D01*
X71924819Y-127842857D02*
X71448628Y-128176190D01*
X71924819Y-128414285D02*
X70924819Y-128414285D01*
X70924819Y-128414285D02*
X70924819Y-128033333D01*
X70924819Y-128033333D02*
X70972438Y-127938095D01*
X70972438Y-127938095D02*
X71020057Y-127890476D01*
X71020057Y-127890476D02*
X71115295Y-127842857D01*
X71115295Y-127842857D02*
X71258152Y-127842857D01*
X71258152Y-127842857D02*
X71353390Y-127890476D01*
X71353390Y-127890476D02*
X71401009Y-127938095D01*
X71401009Y-127938095D02*
X71448628Y-128033333D01*
X71448628Y-128033333D02*
X71448628Y-128414285D01*
X71924819Y-126890476D02*
X71924819Y-127461904D01*
X71924819Y-127176190D02*
X70924819Y-127176190D01*
X70924819Y-127176190D02*
X71067676Y-127271428D01*
X71067676Y-127271428D02*
X71162914Y-127366666D01*
X71162914Y-127366666D02*
X71210533Y-127461904D01*
X70924819Y-126557142D02*
X70924819Y-125938095D01*
X70924819Y-125938095D02*
X71305771Y-126271428D01*
X71305771Y-126271428D02*
X71305771Y-126128571D01*
X71305771Y-126128571D02*
X71353390Y-126033333D01*
X71353390Y-126033333D02*
X71401009Y-125985714D01*
X71401009Y-125985714D02*
X71496247Y-125938095D01*
X71496247Y-125938095D02*
X71734342Y-125938095D01*
X71734342Y-125938095D02*
X71829580Y-125985714D01*
X71829580Y-125985714D02*
X71877200Y-126033333D01*
X71877200Y-126033333D02*
X71924819Y-126128571D01*
X71924819Y-126128571D02*
X71924819Y-126414285D01*
X71924819Y-126414285D02*
X71877200Y-126509523D01*
X71877200Y-126509523D02*
X71829580Y-126557142D01*
X88481919Y-56733385D02*
X87481919Y-56733385D01*
X87481919Y-56733385D02*
X87481919Y-56495290D01*
X87481919Y-56495290D02*
X87529538Y-56352433D01*
X87529538Y-56352433D02*
X87624776Y-56257195D01*
X87624776Y-56257195D02*
X87720014Y-56209576D01*
X87720014Y-56209576D02*
X87910490Y-56161957D01*
X87910490Y-56161957D02*
X88053347Y-56161957D01*
X88053347Y-56161957D02*
X88243823Y-56209576D01*
X88243823Y-56209576D02*
X88339061Y-56257195D01*
X88339061Y-56257195D02*
X88434300Y-56352433D01*
X88434300Y-56352433D02*
X88481919Y-56495290D01*
X88481919Y-56495290D02*
X88481919Y-56733385D01*
X88434300Y-55781004D02*
X88481919Y-55638147D01*
X88481919Y-55638147D02*
X88481919Y-55400052D01*
X88481919Y-55400052D02*
X88434300Y-55304814D01*
X88434300Y-55304814D02*
X88386680Y-55257195D01*
X88386680Y-55257195D02*
X88291442Y-55209576D01*
X88291442Y-55209576D02*
X88196204Y-55209576D01*
X88196204Y-55209576D02*
X88100966Y-55257195D01*
X88100966Y-55257195D02*
X88053347Y-55304814D01*
X88053347Y-55304814D02*
X88005728Y-55400052D01*
X88005728Y-55400052D02*
X87958109Y-55590528D01*
X87958109Y-55590528D02*
X87910490Y-55685766D01*
X87910490Y-55685766D02*
X87862871Y-55733385D01*
X87862871Y-55733385D02*
X87767633Y-55781004D01*
X87767633Y-55781004D02*
X87672395Y-55781004D01*
X87672395Y-55781004D02*
X87577157Y-55733385D01*
X87577157Y-55733385D02*
X87529538Y-55685766D01*
X87529538Y-55685766D02*
X87481919Y-55590528D01*
X87481919Y-55590528D02*
X87481919Y-55352433D01*
X87481919Y-55352433D02*
X87529538Y-55209576D01*
X88481919Y-54257195D02*
X88481919Y-54828623D01*
X88481919Y-54542909D02*
X87481919Y-54542909D01*
X87481919Y-54542909D02*
X87624776Y-54638147D01*
X87624776Y-54638147D02*
X87720014Y-54733385D01*
X87720014Y-54733385D02*
X87767633Y-54828623D01*
%TO.C,SW6*%
D12*
X60850000Y-54866899D02*
X59350000Y-54866899D01*
X56850000Y-56116899D02*
X56850000Y-60616899D01*
X63350000Y-60616899D02*
X63350000Y-56116899D01*
X59350000Y-61866899D02*
X60850000Y-61866899D01*
%TO.C,C6*%
X56522600Y-64339499D02*
X56859600Y-64339499D01*
X56522600Y-69579499D02*
X56522600Y-64339499D01*
X56859600Y-69579499D02*
X56522600Y-69579499D01*
X58925600Y-64339499D02*
X59262600Y-64339499D01*
X59262600Y-64339499D02*
X59262600Y-69579499D01*
X59262600Y-69579499D02*
X58925600Y-69579499D01*
%TO.C,R6*%
X63674600Y-71541699D02*
X63344600Y-71541699D01*
X63674600Y-65001699D02*
X63674600Y-71541699D01*
X63344600Y-65001699D02*
X63674600Y-65001699D01*
X61264600Y-65001699D02*
X60934600Y-65001699D01*
X60934600Y-71541699D02*
X61264600Y-71541699D01*
X60934600Y-65001699D02*
X60934600Y-71541699D01*
%TO.C,U1*%
X119488100Y-141983400D02*
G75*
G02*
X119488100Y-139983400I0J1000000D01*
G01*
X119488100Y-138333400D02*
X88888100Y-138333400D01*
X88888100Y-138333400D02*
X88888100Y-143633400D01*
X119488100Y-139983400D02*
X119488100Y-138333400D01*
X119488100Y-143633400D02*
X119488100Y-141983400D01*
X88888100Y-143633400D02*
X119488100Y-143633400D01*
%TO.C,D2*%
X61995000Y-89100000D02*
G75*
G02*
X56995000Y-89100000I-2500000J0D01*
G01*
X56995000Y-89100000D02*
G75*
G02*
X61995000Y-89100000I2500000J0D01*
G01*
X56935000Y-87555170D02*
G75*
G02*
X62485000Y-89100000I2560000J-1544830D01*
G01*
X62485000Y-89100000D02*
G75*
G02*
X56935000Y-90644830I-2990000J0D01*
G01*
X56935000Y-87555000D02*
X56935000Y-90645000D01*
%TO.C,C10*%
X99585000Y-132710000D02*
X94345000Y-132710000D01*
X99585000Y-132373000D02*
X99585000Y-132710000D01*
X99585000Y-129970000D02*
X99585000Y-130307000D01*
X94345000Y-132710000D02*
X94345000Y-132373000D01*
X94345000Y-130307000D02*
X94345000Y-129970000D01*
X94345000Y-129970000D02*
X99585000Y-129970000D01*
%TO.C,U4*%
X95545000Y-111390000D02*
X95545000Y-129290000D01*
X95545000Y-129290000D02*
X97195000Y-129290000D01*
X99195000Y-129290000D02*
X100845000Y-129290000D01*
X100845000Y-111390000D02*
X95545000Y-111390000D01*
X100845000Y-129290000D02*
X100845000Y-111390000D01*
X97195000Y-129290000D02*
G75*
G02*
X99195000Y-129290000I1000000J0D01*
G01*
%TO.C,U3*%
X118945000Y-129290000D02*
X118945000Y-111390000D01*
X118945000Y-111390000D02*
X113645000Y-111390000D01*
X117295000Y-129290000D02*
X118945000Y-129290000D01*
X113645000Y-129290000D02*
X115295000Y-129290000D01*
X113645000Y-111390000D02*
X113645000Y-129290000D01*
X115295000Y-129290000D02*
G75*
G02*
X117295000Y-129290000I1000000J0D01*
G01*
%TO.C,C9*%
X112485000Y-129970000D02*
X117725000Y-129970000D01*
X112485000Y-130307000D02*
X112485000Y-129970000D01*
X112485000Y-132710000D02*
X112485000Y-132373000D01*
X117725000Y-129970000D02*
X117725000Y-130307000D01*
X117725000Y-132373000D02*
X117725000Y-132710000D01*
X117725000Y-132710000D02*
X112485000Y-132710000D01*
%TO.C,C3*%
X46480000Y-72728000D02*
X46480000Y-72391000D01*
X51720000Y-72728000D02*
X46480000Y-72728000D01*
X51720000Y-72391000D02*
X51720000Y-72728000D01*
X46480000Y-70325000D02*
X46480000Y-69988000D01*
X46480000Y-69988000D02*
X51720000Y-69988000D01*
X51720000Y-69988000D02*
X51720000Y-70325000D01*
%TO.C,C1*%
X46480000Y-56070000D02*
X46480000Y-55733000D01*
X51720000Y-56070000D02*
X46480000Y-56070000D01*
X51720000Y-55733000D02*
X51720000Y-56070000D01*
X46480000Y-53667000D02*
X46480000Y-53330000D01*
X46480000Y-53330000D02*
X51720000Y-53330000D01*
X51720000Y-53330000D02*
X51720000Y-53667000D01*
%TO.C,R2*%
X47130000Y-66330000D02*
X53670000Y-66330000D01*
X47130000Y-66660000D02*
X47130000Y-66330000D01*
X47130000Y-68740000D02*
X47130000Y-69070000D01*
X47130000Y-69070000D02*
X53670000Y-69070000D01*
X53670000Y-66330000D02*
X53670000Y-66660000D01*
X53670000Y-69070000D02*
X53670000Y-68740000D01*
%TO.C,C2*%
X46580000Y-64570000D02*
X46580000Y-64233000D01*
X51820000Y-64570000D02*
X46580000Y-64570000D01*
X51820000Y-64233000D02*
X51820000Y-64570000D01*
X46580000Y-62167000D02*
X46580000Y-61830000D01*
X46580000Y-61830000D02*
X51820000Y-61830000D01*
X51820000Y-61830000D02*
X51820000Y-62167000D01*
%TO.C,R3*%
X47130000Y-74988000D02*
X53670000Y-74988000D01*
X47130000Y-75318000D02*
X47130000Y-74988000D01*
X47130000Y-77398000D02*
X47130000Y-77728000D01*
X47130000Y-77728000D02*
X53670000Y-77728000D01*
X53670000Y-74988000D02*
X53670000Y-75318000D01*
X53670000Y-77728000D02*
X53670000Y-77398000D01*
%TO.C,SW5*%
X43800000Y-91850000D02*
X43800000Y-90350000D01*
X42550000Y-87850000D02*
X38050000Y-87850000D01*
X38050000Y-94350000D02*
X42550000Y-94350000D01*
X36800000Y-90350000D02*
X36800000Y-91850000D01*
%TO.C,SW4*%
X43800000Y-83300000D02*
X43800000Y-81800000D01*
X42550000Y-79300000D02*
X38050000Y-79300000D01*
X38050000Y-85800000D02*
X42550000Y-85800000D01*
X36800000Y-81800000D02*
X36800000Y-83300000D01*
%TO.C,SW3*%
X43800000Y-74750000D02*
X43800000Y-73250000D01*
X42550000Y-70750000D02*
X38050000Y-70750000D01*
X38050000Y-77250000D02*
X42550000Y-77250000D01*
X36800000Y-73250000D02*
X36800000Y-74750000D01*
%TO.C,SW1*%
X43800000Y-57650000D02*
X43800000Y-56150000D01*
X42550000Y-53650000D02*
X38050000Y-53650000D01*
X38050000Y-60150000D02*
X42550000Y-60150000D01*
X36800000Y-56150000D02*
X36800000Y-57650000D01*
%TO.C,C5*%
X46568500Y-90268100D02*
X46568500Y-89931100D01*
X51808500Y-90268100D02*
X46568500Y-90268100D01*
X51808500Y-89931100D02*
X51808500Y-90268100D01*
X46568500Y-87865100D02*
X46568500Y-87528100D01*
X46568500Y-87528100D02*
X51808500Y-87528100D01*
X51808500Y-87528100D02*
X51808500Y-87865100D01*
%TO.C,R4*%
X47230000Y-83485300D02*
X53770000Y-83485300D01*
X47230000Y-83815300D02*
X47230000Y-83485300D01*
X47230000Y-85895300D02*
X47230000Y-86225300D01*
X47230000Y-86225300D02*
X53770000Y-86225300D01*
X53770000Y-83485300D02*
X53770000Y-83815300D01*
X53770000Y-86225300D02*
X53770000Y-85895300D01*
%TO.C,C4*%
X46580000Y-81670000D02*
X46580000Y-81333000D01*
X51820000Y-81670000D02*
X46580000Y-81670000D01*
X51820000Y-81333000D02*
X51820000Y-81670000D01*
X46580000Y-79267000D02*
X46580000Y-78930000D01*
X46580000Y-78930000D02*
X51820000Y-78930000D01*
X51820000Y-78930000D02*
X51820000Y-79267000D01*
%TO.C,R5*%
X47280000Y-91977200D02*
X53820000Y-91977200D01*
X47280000Y-92307200D02*
X47280000Y-91977200D01*
X47280000Y-94387200D02*
X47280000Y-94717200D01*
X47280000Y-94717200D02*
X53820000Y-94717200D01*
X53820000Y-91977200D02*
X53820000Y-92307200D01*
X53820000Y-94717200D02*
X53820000Y-94387200D01*
%TO.C,SW2*%
X43800000Y-66200000D02*
X43800000Y-64700000D01*
X42550000Y-62200000D02*
X38050000Y-62200000D01*
X38050000Y-68700000D02*
X42550000Y-68700000D01*
X36800000Y-64700000D02*
X36800000Y-66200000D01*
%TO.C,R1*%
X47030000Y-57788000D02*
X53570000Y-57788000D01*
X47030000Y-58118000D02*
X47030000Y-57788000D01*
X47030000Y-60198000D02*
X47030000Y-60528000D01*
X47030000Y-60528000D02*
X53570000Y-60528000D01*
X53570000Y-57788000D02*
X53570000Y-58118000D01*
X53570000Y-60528000D02*
X53570000Y-60198000D01*
%TO.C,R12*%
X58030000Y-141130000D02*
X64570000Y-141130000D01*
X58030000Y-141460000D02*
X58030000Y-141130000D01*
X58030000Y-143540000D02*
X58030000Y-143870000D01*
X58030000Y-143870000D02*
X64570000Y-143870000D01*
X64570000Y-141130000D02*
X64570000Y-141460000D01*
X64570000Y-143870000D02*
X64570000Y-143540000D01*
%TO.C,D5*%
X52500000Y-136495000D02*
G75*
G02*
X47500000Y-136495000I-2500000J0D01*
G01*
X47500000Y-136495000D02*
G75*
G02*
X52500000Y-136495000I2500000J0D01*
G01*
X51544830Y-133935000D02*
G75*
G02*
X50000000Y-139485000I-1544830J-2560000D01*
G01*
X50000000Y-139485000D02*
G75*
G02*
X48455170Y-133935000I0J2990000D01*
G01*
X51545000Y-133935000D02*
X48455000Y-133935000D01*
%TO.C,D6*%
X60000000Y-136495000D02*
G75*
G02*
X55000000Y-136495000I-2500000J0D01*
G01*
X55000000Y-136495000D02*
G75*
G02*
X60000000Y-136495000I2500000J0D01*
G01*
X59044830Y-133935000D02*
G75*
G02*
X57500000Y-139485000I-1544830J-2560000D01*
G01*
X57500000Y-139485000D02*
G75*
G02*
X55955170Y-133935000I0J2990000D01*
G01*
X59045000Y-133935000D02*
X55955000Y-133935000D01*
%TO.C,R11*%
X42730000Y-143670000D02*
X42730000Y-143340000D01*
X49270000Y-143670000D02*
X42730000Y-143670000D01*
X49270000Y-143340000D02*
X49270000Y-143670000D01*
X49270000Y-141260000D02*
X49270000Y-140930000D01*
X42730000Y-140930000D02*
X42730000Y-141260000D01*
X49270000Y-140930000D02*
X42730000Y-140930000D01*
%TO.C,Q1*%
X61300000Y-125210000D02*
X64900000Y-125210000D01*
X61261522Y-125198478D02*
G75*
G02*
X63100000Y-120759999I1838478J1838478D01*
G01*
X63100000Y-120760000D02*
G75*
G02*
X64938478Y-125198478I0J-2600000D01*
G01*
%TO.C,DS3*%
D13*
X108179100Y-52506900D02*
X120979100Y-52506900D01*
X108179100Y-62306900D02*
X108179100Y-52506900D01*
X108179100Y-92706900D02*
X108179100Y-82906900D01*
X120979100Y-52506900D02*
X120979100Y-62306900D01*
X120979100Y-82906900D02*
X120979100Y-92706900D01*
X120979100Y-92706900D02*
X108179100Y-92706900D01*
D14*
X109991250Y-60950200D02*
G75*
G02*
X109260750Y-60950200I-365250J0D01*
G01*
X109260750Y-60950200D02*
G75*
G02*
X109991250Y-60950200I365250J0D01*
G01*
X109991250Y-91430200D02*
G75*
G02*
X109260750Y-91430200I-365250J0D01*
G01*
X109260750Y-91430200D02*
G75*
G02*
X109991250Y-91430200I365250J0D01*
G01*
D15*
X115215200Y-56178800D02*
X115215200Y-59054100D01*
X114701400Y-59421100D01*
X114236600Y-58980700D01*
X114236600Y-55934200D01*
X114603600Y-55567200D01*
X115215200Y-56178800D01*
G36*
X115215200Y-56178800D02*
G01*
X115215200Y-59054100D01*
X114701400Y-59421100D01*
X114236600Y-58980700D01*
X114236600Y-55934200D01*
X114603600Y-55567200D01*
X115215200Y-56178800D01*
G37*
X115215200Y-66338800D02*
X115215200Y-69214100D01*
X114701400Y-69581100D01*
X114236600Y-69140700D01*
X114236600Y-66094200D01*
X114603600Y-65727200D01*
X115215200Y-66338800D01*
G36*
X115215200Y-66338800D02*
G01*
X115215200Y-69214100D01*
X114701400Y-69581100D01*
X114236600Y-69140700D01*
X114236600Y-66094200D01*
X114603600Y-65727200D01*
X115215200Y-66338800D01*
G37*
X115215200Y-76498800D02*
X115215200Y-79374100D01*
X114701400Y-79741100D01*
X114236600Y-79300700D01*
X114236600Y-76254200D01*
X114603600Y-75887200D01*
X115215200Y-76498800D01*
G36*
X115215200Y-76498800D02*
G01*
X115215200Y-79374100D01*
X114701400Y-79741100D01*
X114236600Y-79300700D01*
X114236600Y-76254200D01*
X114603600Y-75887200D01*
X115215200Y-76498800D01*
G37*
X115215200Y-86658800D02*
X115215200Y-89534100D01*
X114701400Y-89901100D01*
X114236600Y-89460700D01*
X114236600Y-86414200D01*
X114603600Y-86047200D01*
X115215200Y-86658800D01*
G36*
X115215200Y-86658800D02*
G01*
X115215200Y-89534100D01*
X114701400Y-89901100D01*
X114236600Y-89460700D01*
X114236600Y-86414200D01*
X114603600Y-86047200D01*
X115215200Y-86658800D01*
G37*
%TO.C,R10*%
D12*
X61230000Y-110910000D02*
X67770000Y-110910000D01*
X67770000Y-110910000D02*
X67770000Y-110580000D01*
X61230000Y-110580000D02*
X61230000Y-110910000D01*
X61230000Y-108500000D02*
X61230000Y-108170000D01*
X61230000Y-108170000D02*
X67770000Y-108170000D01*
X67770000Y-108170000D02*
X67770000Y-108500000D01*
%TO.C,C8*%
X120508100Y-144913400D02*
X120508100Y-139673400D01*
X120845100Y-144913400D02*
X120508100Y-144913400D01*
X123248100Y-144913400D02*
X122911100Y-144913400D01*
X120508100Y-139673400D02*
X120845100Y-139673400D01*
X122911100Y-139673400D02*
X123248100Y-139673400D01*
X123248100Y-139673400D02*
X123248100Y-144913400D01*
%TO.C,D4*%
X56935000Y-102495000D02*
X56935000Y-105585000D01*
X62485000Y-104040000D02*
G75*
G02*
X56935000Y-105584830I-2990000J0D01*
G01*
X56935000Y-102495170D02*
G75*
G02*
X62485000Y-104040000I2560000J-1544830D01*
G01*
X61995000Y-104040000D02*
G75*
G02*
X56995000Y-104040000I-2500000J0D01*
G01*
X56995000Y-104040000D02*
G75*
G02*
X61995000Y-104040000I2500000J0D01*
G01*
%TO.C,D3*%
X56935000Y-95025000D02*
X56935000Y-98115000D01*
X62485000Y-96570000D02*
G75*
G02*
X56935000Y-98114830I-2990000J0D01*
G01*
X56935000Y-95025170D02*
G75*
G02*
X62485000Y-96570000I2560000J-1544830D01*
G01*
X61995000Y-96570000D02*
G75*
G02*
X56995000Y-96570000I-2500000J0D01*
G01*
X56995000Y-96570000D02*
G75*
G02*
X61995000Y-96570000I2500000J0D01*
G01*
%TO.C,DS2*%
D13*
X91020000Y-52510000D02*
X103820000Y-52510000D01*
X91020000Y-62310000D02*
X91020000Y-52510000D01*
X91020000Y-92710000D02*
X91020000Y-82910000D01*
X103820000Y-52510000D02*
X103820000Y-62310000D01*
X103820000Y-82910000D02*
X103820000Y-92710000D01*
X103820000Y-92710000D02*
X91020000Y-92710000D01*
D14*
X92832150Y-60953300D02*
G75*
G02*
X92101650Y-60953300I-365250J0D01*
G01*
X92101650Y-60953300D02*
G75*
G02*
X92832150Y-60953300I365250J0D01*
G01*
X92832150Y-91433300D02*
G75*
G02*
X92101650Y-91433300I-365250J0D01*
G01*
X92101650Y-91433300D02*
G75*
G02*
X92832150Y-91433300I365250J0D01*
G01*
D15*
X98056100Y-56181900D02*
X98056100Y-59057200D01*
X97542300Y-59424200D01*
X97077500Y-58983800D01*
X97077500Y-55937300D01*
X97444500Y-55570300D01*
X98056100Y-56181900D01*
G36*
X98056100Y-56181900D02*
G01*
X98056100Y-59057200D01*
X97542300Y-59424200D01*
X97077500Y-58983800D01*
X97077500Y-55937300D01*
X97444500Y-55570300D01*
X98056100Y-56181900D01*
G37*
X98056100Y-66341900D02*
X98056100Y-69217200D01*
X97542300Y-69584200D01*
X97077500Y-69143800D01*
X97077500Y-66097300D01*
X97444500Y-65730300D01*
X98056100Y-66341900D01*
G36*
X98056100Y-66341900D02*
G01*
X98056100Y-69217200D01*
X97542300Y-69584200D01*
X97077500Y-69143800D01*
X97077500Y-66097300D01*
X97444500Y-65730300D01*
X98056100Y-66341900D01*
G37*
X98056100Y-76501900D02*
X98056100Y-79377200D01*
X97542300Y-79744200D01*
X97077500Y-79303800D01*
X97077500Y-76257300D01*
X97444500Y-75890300D01*
X98056100Y-76501900D01*
G36*
X98056100Y-76501900D02*
G01*
X98056100Y-79377200D01*
X97542300Y-79744200D01*
X97077500Y-79303800D01*
X97077500Y-76257300D01*
X97444500Y-75890300D01*
X98056100Y-76501900D01*
G37*
X98056100Y-86661900D02*
X98056100Y-89537200D01*
X97542300Y-89904200D01*
X97077500Y-89463800D01*
X97077500Y-86417300D01*
X97444500Y-86050300D01*
X98056100Y-86661900D01*
G36*
X98056100Y-86661900D02*
G01*
X98056100Y-89537200D01*
X97542300Y-89904200D01*
X97077500Y-89463800D01*
X97077500Y-86417300D01*
X97444500Y-86050300D01*
X98056100Y-86661900D01*
G37*
%TO.C,BZ1*%
D12*
X58700000Y-123500000D02*
G75*
G02*
X46500000Y-123500000I-6100000J0D01*
G01*
X46500000Y-123500000D02*
G75*
G02*
X58700000Y-123500000I6100000J0D01*
G01*
%TO.C,D1*%
X56935000Y-80085000D02*
X56935000Y-83175000D01*
X62485000Y-81630000D02*
G75*
G02*
X56935000Y-83174830I-2990000J0D01*
G01*
X56935000Y-80085170D02*
G75*
G02*
X62485000Y-81630000I2560000J-1544830D01*
G01*
X61995000Y-81630000D02*
G75*
G02*
X56995000Y-81630000I-2500000J0D01*
G01*
X56995000Y-81630000D02*
G75*
G02*
X61995000Y-81630000I2500000J0D01*
G01*
%TO.C,R9*%
X65130000Y-103500000D02*
X65460000Y-103500000D01*
X67870000Y-103500000D02*
X67540000Y-103500000D01*
X65130000Y-96960000D02*
X65130000Y-103500000D01*
X65460000Y-96960000D02*
X65130000Y-96960000D01*
X67540000Y-96960000D02*
X67870000Y-96960000D01*
X67870000Y-96960000D02*
X67870000Y-103500000D01*
%TO.C,R8*%
X65130000Y-88810000D02*
X65130000Y-82270000D01*
X65460000Y-88810000D02*
X65130000Y-88810000D01*
X67540000Y-88810000D02*
X67870000Y-88810000D01*
X67870000Y-88810000D02*
X67870000Y-82270000D01*
X65130000Y-82270000D02*
X65460000Y-82270000D01*
X67870000Y-82270000D02*
X67540000Y-82270000D01*
%TO.C,R7*%
X61230000Y-77410000D02*
X67770000Y-77410000D01*
X67770000Y-77410000D02*
X67770000Y-77080000D01*
X61230000Y-77080000D02*
X61230000Y-77410000D01*
X61230000Y-75000000D02*
X61230000Y-74670000D01*
X61230000Y-74670000D02*
X67770000Y-74670000D01*
X67770000Y-74670000D02*
X67770000Y-75000000D01*
%TO.C,R13*%
X70470000Y-123930000D02*
X70470000Y-130470000D01*
X70140000Y-123930000D02*
X70470000Y-123930000D01*
X68060000Y-123930000D02*
X67730000Y-123930000D01*
X67730000Y-123930000D02*
X67730000Y-130470000D01*
X70470000Y-130470000D02*
X70140000Y-130470000D01*
X67730000Y-130470000D02*
X68060000Y-130470000D01*
%TO.C,DS1*%
D13*
X74207100Y-52564100D02*
X87007100Y-52564100D01*
X74207100Y-62364100D02*
X74207100Y-52564100D01*
X74207100Y-92764100D02*
X74207100Y-82964100D01*
X87007100Y-52564100D02*
X87007100Y-62364100D01*
X87007100Y-82964100D02*
X87007100Y-92764100D01*
X87007100Y-92764100D02*
X74207100Y-92764100D01*
D14*
X76019250Y-61007400D02*
G75*
G02*
X75288750Y-61007400I-365250J0D01*
G01*
X75288750Y-61007400D02*
G75*
G02*
X76019250Y-61007400I365250J0D01*
G01*
X76019250Y-91487400D02*
G75*
G02*
X75288750Y-91487400I-365250J0D01*
G01*
X75288750Y-91487400D02*
G75*
G02*
X76019250Y-91487400I365250J0D01*
G01*
D15*
X81243200Y-56236000D02*
X81243200Y-59111300D01*
X80729400Y-59478300D01*
X80264600Y-59037900D01*
X80264600Y-55991400D01*
X80631600Y-55624400D01*
X81243200Y-56236000D01*
G36*
X81243200Y-56236000D02*
G01*
X81243200Y-59111300D01*
X80729400Y-59478300D01*
X80264600Y-59037900D01*
X80264600Y-55991400D01*
X80631600Y-55624400D01*
X81243200Y-56236000D01*
G37*
X81243200Y-66396000D02*
X81243200Y-69271300D01*
X80729400Y-69638300D01*
X80264600Y-69197900D01*
X80264600Y-66151400D01*
X80631600Y-65784400D01*
X81243200Y-66396000D01*
G36*
X81243200Y-66396000D02*
G01*
X81243200Y-69271300D01*
X80729400Y-69638300D01*
X80264600Y-69197900D01*
X80264600Y-66151400D01*
X80631600Y-65784400D01*
X81243200Y-66396000D01*
G37*
X81243200Y-76556000D02*
X81243200Y-79431300D01*
X80729400Y-79798300D01*
X80264600Y-79357900D01*
X80264600Y-76311400D01*
X80631600Y-75944400D01*
X81243200Y-76556000D01*
G36*
X81243200Y-76556000D02*
G01*
X81243200Y-79431300D01*
X80729400Y-79798300D01*
X80264600Y-79357900D01*
X80264600Y-76311400D01*
X80631600Y-75944400D01*
X81243200Y-76556000D01*
G37*
X81243200Y-86716000D02*
X81243200Y-89591300D01*
X80729400Y-89958300D01*
X80264600Y-89517900D01*
X80264600Y-86471400D01*
X80631600Y-86104400D01*
X81243200Y-86716000D01*
G36*
X81243200Y-86716000D02*
G01*
X81243200Y-89591300D01*
X80729400Y-89958300D01*
X80264600Y-89517900D01*
X80264600Y-86471400D01*
X80631600Y-86104400D01*
X81243200Y-86716000D01*
G37*
%TD*%
M02*
