M48
; DRILL file KiCad 10.0.0 date 2026-04-16T14:40:57
; FORMAT={-:-/ absolute / metric / decimal}
; #@! TF.CreationDate,2026-04-16T14:40:57-04:00
; #@! TF.GenerationSoftware,Kicad,Pcbnew,10.0.0
; #@! TF.FileFunction,Plated,1,2,PTH
FMAT,2
METRIC
; #@! TA.AperFunction,Plated,PTH,ViaDrill
T1C0.300
; #@! TA.AperFunction,Plated,PTH,ComponentDrill
T2C0.750
; #@! TA.AperFunction,Plated,PTH,ComponentDrill
T3C0.800
; #@! TA.AperFunction,Plated,PTH,ComponentDrill
T4C0.813
; #@! TA.AperFunction,Plated,PTH,ComponentDrill
T5C0.900
; #@! TA.AperFunction,Plated,PTH,ComponentDrill
T6C1.000
; #@! TA.AperFunction,Plated,PTH,ComponentDrill
T7C1.100
%
G90
G05
T1
X33.883Y-85.12
X33.926Y-76.193
X37.082Y-120.929
X39.5Y-106.0
X49.601Y-112.934
X60.358Y-126.781
X63.301Y-129.757
X66.245Y-132.733
X66.706Y-117.854
X75.073Y-75.209
X76.899Y-108.927
X78.016Y-105.951
X80.804Y-117.854
X82.626Y-116.901
X84.882Y-138.685
X86.846Y-144.636
X87.304Y-123.687
X87.359Y-77.896
X87.764Y-75.841
X89.311Y-120.46
X90.937Y-114.878
X99.254Y-122.598
X99.646Y-113.944
X100.5Y-100.0
X100.7Y-75.577
X104.444Y-128.885
X104.848Y-66.973
X106.724Y-111.902
X107.227Y-115.23
X107.447Y-120.83
X111.275Y-64.569
X116.495Y-129.405
X120.0Y-90.0
X120.413Y-135.907
T2
X61.83Y-123.36
X63.1Y-123.36
X64.37Y-123.36
T3
X42.19Y-142.3
X46.49Y-59.158
X46.59Y-67.7
X46.59Y-76.358
X46.6Y-54.7
X46.6Y-71.358
X46.688Y-88.898
X46.69Y-84.855
X46.7Y-63.2
X46.7Y-80.3
X46.74Y-93.347
X49.81Y-142.3
X51.6Y-54.7
X51.6Y-71.358
X51.688Y-88.898
X51.7Y-63.2
X51.7Y-80.3
X54.11Y-59.158
X54.21Y-67.7
X54.21Y-76.358
X54.31Y-84.855
X54.36Y-93.347
X57.49Y-142.5
X57.893Y-64.459
X57.893Y-69.459
X60.69Y-76.04
X60.69Y-109.54
X62.305Y-64.462
X62.305Y-72.082
X65.11Y-142.5
X66.5Y-81.73
X66.5Y-89.35
X66.5Y-96.42
X66.5Y-104.04
X68.31Y-76.04
X68.31Y-109.54
X69.1Y-123.39
X69.1Y-131.01
X90.218Y-137.173
X90.218Y-144.793
X92.758Y-137.173
X92.758Y-144.793
X94.385Y-112.72
X94.385Y-115.26
X94.385Y-117.8
X94.385Y-120.34
X94.385Y-122.88
X94.385Y-125.42
X94.385Y-127.96
X94.465Y-131.34
X95.298Y-137.173
X95.298Y-144.793
X97.838Y-137.173
X97.838Y-144.793
X99.465Y-131.34
X100.378Y-137.173
X100.378Y-144.793
X102.005Y-112.72
X102.005Y-115.26
X102.005Y-117.8
X102.005Y-120.34
X102.005Y-122.88
X102.005Y-125.42
X102.005Y-127.96
X102.918Y-137.173
X102.918Y-144.793
X105.458Y-137.173
X105.458Y-144.793
X107.998Y-137.173
X107.998Y-144.793
X110.538Y-137.173
X110.538Y-144.793
X112.485Y-112.72
X112.485Y-115.26
X112.485Y-117.8
X112.485Y-120.34
X112.485Y-122.88
X112.485Y-125.42
X112.485Y-127.96
X112.605Y-131.34
X113.078Y-137.173
X113.078Y-144.793
X115.618Y-137.173
X115.618Y-144.793
X117.605Y-131.34
X118.158Y-137.173
X118.158Y-144.793
X120.105Y-112.72
X120.105Y-115.26
X120.105Y-117.8
X120.105Y-120.34
X120.105Y-122.88
X120.105Y-125.42
X120.105Y-127.96
X121.878Y-139.793
X121.878Y-144.793
T4
X75.527Y-63.774
X75.527Y-66.314
X75.527Y-68.854
X75.527Y-71.394
X75.527Y-73.934
X75.527Y-76.474
X75.527Y-79.014
X75.527Y-81.554
X85.687Y-63.774
X85.687Y-66.314
X85.687Y-68.854
X85.687Y-71.394
X85.687Y-73.934
X85.687Y-76.474
X85.687Y-79.014
X85.687Y-81.554
X92.34Y-63.72
X92.34Y-66.26
X92.34Y-68.8
X92.34Y-71.34
X92.34Y-73.88
X92.34Y-76.42
X92.34Y-78.96
X92.34Y-81.5
X102.5Y-63.72
X102.5Y-66.26
X102.5Y-68.8
X102.5Y-71.34
X102.5Y-73.88
X102.5Y-76.42
X102.5Y-78.96
X102.5Y-81.5
X109.499Y-63.717
X109.499Y-66.257
X109.499Y-68.797
X109.499Y-71.337
X109.499Y-73.877
X109.499Y-76.417
X109.499Y-78.957
X109.499Y-81.497
X119.659Y-63.717
X119.659Y-66.257
X119.659Y-68.797
X119.659Y-71.337
X119.659Y-73.877
X119.659Y-76.417
X119.659Y-78.957
X119.659Y-81.497
T5
X50.0Y-135.225
X50.0Y-137.765
X57.5Y-135.225
X57.5Y-137.765
X58.225Y-81.63
X58.225Y-89.1
X58.225Y-96.57
X58.225Y-104.04
X60.765Y-81.63
X60.765Y-89.1
X60.765Y-96.57
X60.765Y-104.04
T6
X37.291Y-101.1
X37.291Y-103.64
X37.291Y-106.18
X37.291Y-108.72
X37.291Y-111.26
X37.291Y-113.8
X37.291Y-116.34
X37.291Y-118.88
X37.3Y-123.38
X37.3Y-125.92
X37.3Y-128.46
X37.3Y-131.0
X37.3Y-133.54
X37.3Y-136.08
X39.84Y-123.38
X39.84Y-125.92
X39.84Y-128.46
X39.84Y-131.0
X39.84Y-133.54
X39.84Y-136.08
X48.8Y-123.5
X56.4Y-123.5
X82.97Y-118.287
X82.97Y-120.827
X82.97Y-123.367
X82.97Y-125.907
X82.97Y-128.447
X82.97Y-130.987
X82.97Y-133.527
X82.97Y-136.067
X85.51Y-118.287
X85.51Y-120.827
X85.51Y-123.367
X85.51Y-125.907
X85.51Y-128.447
X85.51Y-130.987
X85.51Y-133.527
X85.51Y-136.067
T7
X37.05Y-54.65
X37.05Y-59.15
X37.05Y-63.2
X37.05Y-67.7
X37.05Y-71.75
X37.05Y-76.25
X37.05Y-80.3
X37.05Y-84.8
X37.05Y-88.85
X37.05Y-93.35
X43.55Y-54.65
X43.55Y-59.15
X43.55Y-63.2
X43.55Y-67.7
X43.55Y-71.75
X43.55Y-76.25
X43.55Y-80.3
X43.55Y-84.8
X43.55Y-88.85
X43.55Y-93.35
X57.85Y-55.117
X57.85Y-61.617
X62.35Y-55.117
X62.35Y-61.617
M30
